<svg width="80" height="80" viewBox="0 0 80 80" fill="none" xmlns="http://www.w3.org/2000/svg">
<mask id="mask0_20_400" style="mask-type:luminance" maskUnits="userSpaceOnUse" x="9" y="54" width="11" height="14">
<path d="M9.46533 54.4252H19.2947V67.3563H9.46533V54.4252Z" fill="white"/>
</mask>
<g mask="url(#mask0_20_400)">
<path d="M19.1724 54.6673C19.1724 54.603 19.1397 54.5584 19.0757 54.5341C19.011 54.5098 18.9549 54.5197 18.9051 54.5656L9.5571 63.1936C9.52653 63.2218 9.5116 63.2559 9.5116 63.2953L9.51231 67.04C9.51231 67.0807 9.52084 67.1194 9.5379 67.1575C9.55426 67.1949 9.57843 67.2277 9.60972 67.2566C9.64101 67.2854 9.67727 67.3077 9.7178 67.3235C9.75833 67.3386 9.80099 67.3464 9.84507 67.3464H18.8411C18.8852 67.3464 18.9278 67.3386 18.9684 67.3235C19.0089 67.3077 19.0452 67.2854 19.0764 67.2566C19.107 67.2277 19.1312 67.1949 19.1483 67.1568C19.1653 67.1194 19.1739 67.08 19.1739 67.0394L19.1724 54.6673Z" fill="#00B098"/>
</g>
<mask id="mask1_20_400" style="mask-type:luminance" maskUnits="userSpaceOnUse" x="36" y="55" width="10" height="13">
<path d="M36.041 55.2651H45.8704V67.3563H36.041V55.2651Z" fill="white"/>
</mask>
<g mask="url(#mask1_20_400)">
<path d="M45.8647 55.4246C45.8647 55.3603 45.8327 55.3156 45.7687 55.2914C45.704 55.2664 45.6478 55.2769 45.5981 55.3229L39.7249 60.7428C39.6943 60.771 39.6581 60.7848 39.6147 60.7848C39.5713 60.7848 39.5351 60.771 39.5045 60.7428L36.4712 57.9436C36.4214 57.8983 36.3653 57.8878 36.3006 57.9127C36.2366 57.937 36.2039 57.9816 36.2039 58.046L36.2053 67.0394C36.2053 67.0807 36.2138 67.1194 36.2309 67.1568C36.2472 67.1949 36.2714 67.2277 36.3027 67.2566C36.334 67.2855 36.3695 67.3078 36.4108 67.3235C36.4513 67.3386 36.494 67.3465 36.538 67.3465H45.5341C45.5781 67.3465 45.6201 67.3386 45.6613 67.3235C45.7019 67.3078 45.7374 67.2855 45.7687 67.2566C45.8 67.2277 45.8242 67.1949 45.8412 67.1568C45.8576 67.1194 45.8661 67.0801 45.8661 67.0394L45.8647 55.4246Z" fill="#00B098"/>
</g>
<mask id="mask2_20_400" style="mask-type:luminance" maskUnits="userSpaceOnUse" x="22" y="48" width="11" height="20">
<path d="M22.7532 48.21H32.5825V67.3563H22.7532V48.21Z" fill="white"/>
</mask>
<g mask="url(#mask2_20_400)">
<path d="M32.5185 54.3562C32.5185 54.3169 32.5036 54.2827 32.473 54.2545L26.213 48.4776C26.1661 48.4343 26.1114 48.4009 26.0495 48.3772C25.9876 48.3536 25.9237 48.3418 25.8568 48.3418C25.79 48.3418 25.726 48.3536 25.6641 48.3772C25.6023 48.4009 25.5475 48.4343 25.5006 48.4776L22.9032 50.8753C22.8726 50.9035 22.8577 50.9376 22.8577 50.977L22.8591 67.0393C22.8591 67.08 22.8676 67.1194 22.884 67.1568C22.901 67.1948 22.9252 67.2276 22.9565 67.2565C22.9878 67.2854 23.0233 67.3077 23.0639 67.3234C23.1051 67.3385 23.1471 67.3464 23.1911 67.3464H32.1872C32.2312 67.3464 32.2739 67.3385 32.3144 67.3234C32.3557 67.3077 32.3912 67.2854 32.4225 67.2565C32.4538 67.2276 32.478 67.1948 32.4943 67.1568C32.5114 67.1194 32.5199 67.08 32.5199 67.0393L32.5185 54.3562Z" fill="#00B098"/>
</g>
<mask id="mask3_20_400" style="mask-type:luminance" maskUnits="userSpaceOnUse" x="49" y="42" width="11" height="26">
<path d="M49.5109 42.8346H59.3402V67.3562H49.5109V42.8346Z" fill="white"/>
</mask>
<g mask="url(#mask3_20_400)">
<path d="M59.2115 43.1069C59.2115 43.0425 59.1788 42.9986 59.1148 42.9736C59.0508 42.9494 58.9939 42.9599 58.9449 43.0051L49.5962 51.6324C49.5656 51.6607 49.5507 51.6948 49.5507 51.7348L49.5514 67.0393C49.5514 67.0806 49.5599 67.1193 49.577 67.1567C49.594 67.1948 49.6182 67.2276 49.6488 67.2565C49.6801 67.2853 49.7163 67.3076 49.7569 67.3234C49.7974 67.3385 49.8401 67.3464 49.8841 67.3464H58.8802C58.9242 67.3464 58.9669 67.3385 59.0074 67.3234C59.048 67.3076 59.0842 67.2853 59.1155 67.2565C59.1468 67.2276 59.1703 67.1948 59.1873 67.1567C59.2044 67.1193 59.2129 67.08 59.2129 67.0393L59.2115 43.1069Z" fill="#00B098"/>
</g>
<mask id="mask4_20_400" style="mask-type:luminance" maskUnits="userSpaceOnUse" x="62" y="35" width="11" height="33">
<path d="M62.7986 35.7795H72.6279V67.3563H62.7986V35.7795Z" fill="white"/>
</mask>
<g mask="url(#mask4_20_400)">
<path d="M72.5576 41.0926C72.5576 41.0526 72.5426 41.0184 72.5121 40.9902L67.1765 36.0657C67.1288 36.0224 67.0748 35.9883 67.0129 35.9646C66.9511 35.941 66.8871 35.9292 66.8202 35.9292C66.7534 35.9292 66.6887 35.941 66.6275 35.9646C66.5657 35.9883 66.5109 36.0224 66.464 36.0657L62.9422 39.3157C62.9117 39.3439 62.8967 39.378 62.8967 39.4174L62.8982 67.0394C62.8982 67.0801 62.9067 67.1195 62.923 67.1569C62.9401 67.1949 62.9643 67.2278 62.9956 67.2566C63.0268 67.2855 63.0624 67.3078 63.1029 67.3236C63.1442 67.3386 63.1861 67.3465 63.2302 67.3465H72.2262C72.2703 67.3465 72.313 67.3386 72.3535 67.3236C72.3947 67.3078 72.4303 67.2855 72.4616 67.2566C72.4929 67.2278 72.517 67.1949 72.5334 67.1569C72.5505 67.1195 72.559 67.0801 72.559 67.0394L72.5576 41.0926Z" fill="#00B098"/>
</g>
<mask id="mask5_20_400" style="mask-type:luminance" maskUnits="userSpaceOnUse" x="2" y="12" width="76" height="44">
<path d="M2.80933 12.5138H77.0947V55.769H2.80933V12.5138Z" fill="white"/>
</mask>
<g mask="url(#mask5_20_400)">
<path d="M76.5096 12.5493L54.9488 16.3774C54.8614 16.3925 54.7846 16.4279 54.7185 16.483C54.6516 16.5381 54.6054 16.6051 54.5791 16.6838C54.5535 16.7619 54.5507 16.8413 54.5727 16.9213C54.594 17.0014 54.636 17.0703 54.6993 17.1287L59.9887 22.0093L39.9702 40.4843C39.9232 40.5276 39.8685 40.5617 39.8073 40.5854C39.7455 40.6083 39.6808 40.6201 39.6139 40.6201C39.5478 40.6201 39.4831 40.6083 39.4212 40.5854C39.3601 40.5617 39.3053 40.5276 39.2584 40.4843L26.3162 28.5421C26.255 28.4856 26.1846 28.4423 26.105 28.4121C26.0253 28.3813 25.9421 28.3662 25.8561 28.3662C25.7694 28.3662 25.6869 28.3813 25.6073 28.4121C25.5276 28.4423 25.4572 28.4856 25.3961 28.5421L2.99988 49.212C2.93873 49.2684 2.89181 49.3334 2.85839 49.4069C2.82568 49.4804 2.80933 49.5572 2.80933 49.6365C2.80933 49.7166 2.82568 49.7927 2.85839 49.8669C2.89181 49.9404 2.93873 50.0053 2.99988 50.0611L8.91143 55.5158C8.97258 55.5722 9.04297 55.6155 9.12261 55.6464C9.20224 55.6766 9.28544 55.6917 9.37147 55.6917C9.45751 55.6917 9.5407 55.6766 9.62033 55.6464C9.69997 55.6155 9.77036 55.5722 9.83151 55.5158L25.5006 41.0545C25.5475 41.0112 25.6023 40.9778 25.6641 40.9541C25.726 40.9305 25.79 40.9187 25.8568 40.9187C25.9237 40.9187 25.9877 40.9305 26.0495 40.9541C26.1114 40.9778 26.1654 41.0112 26.2131 41.0545L39.1546 52.9974C39.215 53.0539 39.2854 53.0972 39.3651 53.1274C39.4447 53.1582 39.5279 53.1733 39.6146 53.1733C39.7007 53.1733 39.7839 53.1582 39.8635 53.1274C39.9431 53.0972 40.0135 53.0539 40.0747 52.9974L66.8203 28.3137L72.1097 33.1949C72.1722 33.2533 72.2469 33.2927 72.3336 33.3124C72.4204 33.3321 72.5064 33.3301 72.5918 33.3058C72.6764 33.2816 72.7489 33.2389 72.8086 33.1779C72.8683 33.1169 72.9067 33.0453 72.9231 32.9646L77.0741 13.0696C77.0812 13.0342 77.0841 12.9981 77.0819 12.962C77.0798 12.9253 77.0734 12.8898 77.0613 12.8551C77.0499 12.8203 77.0343 12.7875 77.0137 12.7566C76.9938 12.7251 76.9696 12.6969 76.9419 12.6713C76.9141 12.6457 76.8829 12.6234 76.8494 12.6044C76.8153 12.586 76.7797 12.5709 76.7421 12.5604C76.7044 12.5499 76.666 12.5434 76.6269 12.5414C76.5878 12.5394 76.5487 12.5421 76.5096 12.5493Z" fill="#00B098"/>
</g>
</svg>
