<svg width="80" height="80" viewBox="0 0 80 80" fill="none" xmlns="http://www.w3.org/2000/svg">
<mask id="mask0_20_383" style="mask-type:luminance" maskUnits="userSpaceOnUse" x="2" y="10" width="60" height="56">
<path d="M2.6593 10.7506H61.8885V65.8477H2.6593V10.7506Z" fill="white"/>
</mask>
<g mask="url(#mask0_20_383)">
<path fill-rule="evenodd" clip-rule="evenodd" d="M20.3107 10.7545C18.8624 10.7545 17.6913 11.8333 17.6913 13.1764V21.4212C17.6913 22.763 18.8624 23.8424 20.3107 23.8424C21.7648 23.8424 22.9352 22.7637 22.9352 21.4212V18.6102C24.134 19.393 24.8521 20.6653 24.8521 22.0268C24.8521 24.3405 22.8179 26.2171 20.3107 26.2171C17.8036 26.2171 15.7701 24.3405 15.7701 22.0268V15.0997H12.5562C10.7665 15.0997 9.06216 15.5183 7.73039 16.494C6.39151 17.475 5.54823 18.9947 5.37047 20.7322L2.74746 58.8864C2.63014 60.6417 3.05178 62.3352 4.18019 63.6174C5.30932 64.8976 7.09828 65.7007 9.07781 65.7007H44.9211C43.8382 64.5977 42.8826 63.3871 42.1089 62.0741H9.52007C8.55448 62.0741 7.96859 61.7644 7.52704 61.2624C7.08477 60.765 6.85084 60.0091 6.9063 59.0472L8.5687 29.2775H57.5839L57.8726 34.4448C58.5651 34.3792 59.2669 34.3464 59.9787 34.3464C60.5575 34.3464 61.1427 34.3746 61.7214 34.4159L60.7814 20.7329C60.5973 18.996 59.759 17.4756 58.4215 16.4947C57.0898 15.519 55.3861 15.101 53.5957 15.101H48.4599V13.1771C48.4599 11.8339 47.2896 10.7552 45.8355 10.7552C44.3871 10.7552 43.2182 11.8339 43.2182 13.1771V21.4212C43.2182 22.763 44.3871 23.8424 45.8355 23.8424C47.2896 23.8424 48.4599 22.7637 48.4599 21.4212V18.6102C49.6601 19.393 50.3776 20.6653 50.3811 22.0268C50.3811 24.3405 48.3476 26.2171 45.8355 26.2171C43.3284 26.2171 41.2948 24.3405 41.2948 22.0268V15.0997H22.9352V13.1764C22.9352 11.8339 21.7648 10.7545 20.3107 10.7545Z" fill="#00B098"/>
</g>
<mask id="mask1_20_383" style="mask-type:luminance" maskUnits="userSpaceOnUse" x="42" y="37" width="36" height="33">
<path d="M42.5939 37.1234H77.2177V69.0394H42.5939V37.1234Z" fill="white"/>
</mask>
<g mask="url(#mask1_20_383)">
<path fill-rule="evenodd" clip-rule="evenodd" d="M59.9786 37.2251C50.4742 37.2251 42.7709 44.3439 42.7709 53.1286C42.7709 61.9082 50.4749 69.0282 59.9786 69.0282C64.5392 69.0282 68.9178 67.3563 72.1402 64.3727C75.3654 61.3878 77.1793 57.3478 77.1793 53.1286C77.1793 48.9108 75.364 44.8649 72.1402 41.8806C68.9178 38.901 64.5392 37.2251 59.9786 37.2251ZM59.9786 41.1588C63.4101 41.1588 66.7065 42.4206 69.1318 44.6647C71.5614 46.9128 72.9245 49.9528 72.9245 53.1293C72.9245 56.3019 71.5614 59.3471 69.1318 61.5906C66.7065 63.8386 63.4101 65.0958 59.9786 65.0958C52.8235 65.0958 47.0257 59.7369 47.0257 53.13C47.0271 46.5164 52.8235 41.1588 59.9786 41.1588Z" fill="#00B098"/>
</g>
<path fill-rule="evenodd" clip-rule="evenodd" d="M15.4452 35.4475H21.959C22.9146 35.4475 23.6882 36.1549 23.6882 37.0381V41.7303C23.6882 42.6122 22.9146 43.3202 21.959 43.3202H15.4452C14.4881 43.3202 13.7152 42.6116 13.7152 41.7303V37.0381C13.7152 36.1549 14.4881 35.4475 15.4452 35.4475Z" fill="#00B098"/>
<path fill-rule="evenodd" clip-rule="evenodd" d="M29.8202 35.4475H36.3332C37.2903 35.4475 38.0632 36.1549 38.0632 37.0381V41.7303C38.0632 42.6122 37.2903 43.3202 36.3332 43.3202H29.8202C28.8638 43.3202 28.0902 42.6116 28.0902 41.7303V37.0381C28.0902 36.1549 28.8638 35.4475 29.8202 35.4475Z" fill="#00B098"/>
<path fill-rule="evenodd" clip-rule="evenodd" d="M44.1959 35.4475C43.2388 35.4475 42.4652 36.1549 42.4652 37.0381V41.7303C42.4652 42.1706 42.66 42.5742 42.9743 42.8616C45.1458 39.8064 48.2473 37.3661 51.9085 35.8983C51.5992 35.6207 51.1775 35.4475 50.7082 35.4475H44.1959Z" fill="#00B098"/>
<path fill-rule="evenodd" clip-rule="evenodd" d="M15.4452 48.0282H21.959C22.9146 48.0282 23.6882 48.7415 23.6882 49.6233V54.3123C23.6882 55.1942 22.9146 55.9081 21.959 55.9081H15.4452C14.4881 55.9081 13.7152 55.1942 13.7152 54.3123V49.6233C13.7152 48.7415 14.4881 48.0282 15.4452 48.0282Z" fill="#00B098"/>
<path fill-rule="evenodd" clip-rule="evenodd" d="M29.8202 48.0282H36.3332C37.2903 48.0282 38.0632 48.7415 38.0632 49.6233V54.3123C38.0632 55.1942 37.2903 55.9081 36.3332 55.9081H29.8202C28.8638 55.9081 28.0902 55.1942 28.0902 54.3123V49.6233C28.0902 48.7415 28.8638 48.0282 29.8202 48.0282Z" fill="#00B098"/>
<path d="M59.8251 42.9737C59.0628 42.9836 58.4535 43.5643 58.462 44.2683L58.4776 53.6391L64.0614 58.7683C64.6004 59.2795 65.4956 59.2841 66.0402 58.7729C66.5842 58.2657 66.5685 57.4442 66.0089 56.9521L61.24 52.5735L61.2294 44.2631C61.2393 43.5466 60.6036 42.9606 59.8251 42.9737Z" fill="#00B098"/>
</svg>
