<svg width="80" height="80" viewBox="0 0 80 80" fill="none" xmlns="http://www.w3.org/2000/svg">
<mask id="mask0_20_489" style="mask-type:luminance" maskUnits="userSpaceOnUse" x="11" y="10" width="58" height="60">
<path d="M11.8316 10.6759H68.1648V69.1667H11.8316V10.6759Z" fill="white"/>
</mask>
<g mask="url(#mask0_20_489)">
<path d="M64.8649 10.672H51.1597C50.3278 10.672 49.5698 10.964 48.9939 11.4437C48.4179 10.9679 47.6599 10.672 46.828 10.672H33.1228C32.2909 10.672 31.533 10.964 30.957 11.4437C30.3811 10.9679 29.6231 10.672 28.7912 10.672H15.086C13.2928 10.672 11.8373 12.0152 11.8373 13.67V66.2041C11.8373 67.859 13.2928 69.2022 15.086 69.2022H28.7912C29.6231 69.2022 30.3811 68.9102 30.957 68.4305C31.533 68.9062 32.2909 69.2022 33.1228 69.2022H46.828C47.6599 69.2022 48.4179 68.9102 48.9939 68.4305C49.5698 68.9062 50.3278 69.2022 51.1597 69.2022H64.8649C66.6581 69.2022 68.1136 67.859 68.1136 66.2041V13.67C68.1136 12.0152 66.6538 10.672 64.8649 10.672ZM21.8949 65.2927C18.6895 65.2927 16.0779 62.8859 16.0779 59.924C16.0779 56.962 18.6853 54.5559 21.8949 54.5559C25.1052 54.5559 27.7083 56.966 27.7083 59.924C27.7083 62.882 25.1002 65.2927 21.8949 65.2927ZM27.7083 50.462C27.7083 51.4535 26.833 52.2612 25.7586 52.2612H18.1179C17.0435 52.2612 16.1689 51.4535 16.1689 50.462V16.4686C16.1689 15.4771 17.0435 14.6694 18.1179 14.6694H25.7586C26.833 14.6694 27.7083 15.4771 27.7083 16.4686V50.462ZM39.9274 65.2927C36.7221 65.2927 34.1105 62.8859 34.1105 59.924C34.1105 56.962 36.7178 54.5559 39.9274 54.5559C43.1378 54.5559 45.7451 56.962 45.7451 59.924C45.7451 62.8859 43.1335 65.2927 39.9274 65.2927ZM45.7451 50.462C45.7451 51.4535 44.8706 52.2612 43.7962 52.2612H36.1547C35.0803 52.2612 34.2057 51.4535 34.2057 50.462V16.4686C34.2057 15.4771 35.0803 14.6694 36.1547 14.6694H43.7962C44.8706 14.6694 45.7451 15.4771 45.7451 16.4686V50.462ZM57.965 65.2927C54.7596 65.2927 52.1473 62.8859 52.1473 59.924C52.1473 56.962 54.7554 54.5559 57.965 54.5559C61.1746 54.5559 63.782 56.962 63.782 59.924C63.782 62.8859 61.1703 65.2927 57.965 65.2927ZM63.782 50.462C63.782 51.4535 62.9074 52.2612 61.833 52.2612H54.1922C53.1179 52.2612 52.2426 51.4535 52.2426 50.462V16.4686C52.2426 15.4771 53.1179 14.6694 54.1922 14.6694H61.833C62.9074 14.6694 63.782 15.4771 63.782 16.4686V50.462Z" fill="#00B098"/>
</g>
</svg>
