<svg width="70" height="80" viewBox="0 0 70 80" fill="none" xmlns="http://www.w3.org/2000/svg">
<path d="M63.1295 8.33667H20.9492C19.5332 8.33667 18.3194 9.61685 18.3194 11.1103V21.7783H22.2645V15.4843H61.8149V67.6516H33.7955V72.0257C33.7955 73.6254 32.5817 74.9056 31.0649 74.9056H63.1295C64.647 74.9056 65.7594 73.6254 65.7594 72.132V11.1103C65.7594 9.5099 64.5455 8.33667 63.1295 8.33667Z" fill="#00B098"/>
<path d="M43.9111 71.3852C43.9111 71.5184 43.8987 71.6503 43.8738 71.7808C43.8495 71.9114 43.8128 72.0381 43.7643 72.1608C43.7164 72.2841 43.6573 72.4009 43.587 72.5112C43.5167 72.6221 43.4371 72.7244 43.3481 72.8183C43.2585 72.9127 43.1614 72.9967 43.0569 73.0709C42.9518 73.1444 42.841 73.2067 42.7247 73.2579C42.6077 73.3091 42.4876 73.3471 42.3638 73.3734C42.24 73.399 42.115 73.4121 41.9893 73.4121C41.863 73.4121 41.7379 73.399 41.6141 73.3734C41.4903 73.3471 41.3703 73.3091 41.2533 73.2579C41.1369 73.2067 41.0262 73.1444 40.9211 73.0702C40.8165 72.9967 40.7195 72.9127 40.6299 72.8183C40.5409 72.7244 40.4613 72.6221 40.391 72.5112C40.3207 72.4009 40.2616 72.2841 40.2137 72.1608C40.1651 72.0381 40.1284 71.9114 40.1042 71.7808C40.0793 71.6503 40.0668 71.5184 40.0668 71.3852C40.0668 71.252 40.0793 71.1201 40.1042 70.9895C40.1284 70.8589 40.1651 70.7323 40.2137 70.6096C40.2616 70.4869 40.3207 70.3694 40.391 70.2592C40.4613 70.1483 40.5409 70.0459 40.6299 69.9521C40.7195 69.8576 40.8165 69.7736 40.9211 69.7001C41.0262 69.626 41.1369 69.5637 41.2533 69.5125C41.3703 69.462 41.4903 69.4232 41.6141 69.397C41.7379 69.3714 41.863 69.3583 41.9893 69.3583C42.115 69.3583 42.24 69.3714 42.3638 69.397C42.4876 69.4232 42.6077 69.462 42.7247 69.5125C42.841 69.5637 42.9518 69.626 43.0569 69.7001C43.1614 69.7736 43.2585 69.8576 43.3481 69.9521C43.4371 70.0459 43.5167 70.1483 43.587 70.2592C43.6573 70.3694 43.7164 70.4869 43.7643 70.6096C43.8128 70.7323 43.8495 70.8589 43.8738 70.9895C43.8987 71.1201 43.9111 71.252 43.9111 71.3852Z" fill="#00B098"/>
<path d="M43.9111 11.857C43.9111 11.9902 43.8987 12.1221 43.8738 12.2527C43.8495 12.3832 43.8128 12.5099 43.7643 12.6326C43.7164 12.7559 43.6573 12.8727 43.587 12.983C43.5167 13.0939 43.4371 13.1962 43.3481 13.2901C43.2585 13.3845 43.1614 13.4685 43.0569 13.5427C42.9518 13.6162 42.841 13.6785 42.7247 13.7297C42.6077 13.7809 42.4876 13.8189 42.3638 13.8452C42.24 13.8708 42.115 13.8839 41.9893 13.8839C41.863 13.8839 41.7379 13.8708 41.6141 13.8452C41.4903 13.8189 41.3703 13.7809 41.2533 13.7297C41.1369 13.6785 41.0262 13.6162 40.9211 13.5427C40.8165 13.4685 40.7195 13.3845 40.6299 13.2901C40.5409 13.1962 40.4613 13.0939 40.391 12.983C40.3207 12.8727 40.2616 12.7559 40.2137 12.6326C40.1651 12.5099 40.1284 12.3832 40.1042 12.2527C40.0793 12.1221 40.0668 11.9902 40.0668 11.857C40.0668 11.7238 40.0793 11.5919 40.1042 11.462C40.1284 11.3314 40.1651 11.2041 40.2137 11.0814C40.2616 10.9587 40.3207 10.8419 40.391 10.731C40.4613 10.6201 40.5409 10.5177 40.6299 10.4239C40.7195 10.3294 40.8165 10.2454 40.9211 10.1719C41.0262 10.0978 41.1369 10.0355 41.2533 9.98428C41.3703 9.93375 41.4903 9.89504 41.6141 9.86879C41.7379 9.8432 41.863 9.83008 41.9893 9.83008C42.115 9.83008 42.24 9.8432 42.3638 9.86879C42.4876 9.89504 42.6077 9.93375 42.7247 9.98428C42.841 10.0355 42.9518 10.0978 43.0569 10.1719C43.1614 10.2454 43.2585 10.3294 43.3481 10.4239C43.4371 10.5177 43.5167 10.6201 43.587 10.731C43.6573 10.8419 43.7164 10.9587 43.7643 11.0814C43.8128 11.2041 43.8495 11.3314 43.8738 11.462C43.8987 11.5919 43.9111 11.7238 43.9111 11.857Z" fill="#00B098"/>
<path d="M8.30579 32.8734H29.7496V63.7041H8.30579V32.8734Z" fill="white"/>
<path d="M33.7955 28.8195V24.5518C33.7955 22.9521 32.5817 21.6719 31.0649 21.6719H6.99054C5.4731 21.6719 4.25928 22.9521 4.25928 24.5518V28.8195H33.7955Z" fill="#00B098"/>
<path d="M4.25928 67.8649V72.0256C4.25928 73.6254 5.4731 74.9056 6.99054 74.9056H31.0649C32.5817 74.9056 33.7955 73.6254 33.7955 72.0256V67.8649H4.25928Z" fill="#00B098"/>
<mask id="mask0_20_431" style="mask-type:luminance" maskUnits="userSpaceOnUse" x="3" y="7" width="64" height="69">
<path d="M3.45047 7.39111H66.3629V75.9265H3.45047V7.39111Z" fill="white"/>
</mask>
<g mask="url(#mask0_20_431)">
<path d="M63.1295 7.48303H20.9492C19.0274 7.48303 17.5106 9.08343 17.5106 11.1103V20.9253H6.99054C5.0687 20.9253 3.45047 22.525 3.45047 24.6589C3.45047 24.8721 3.45047 73.3059 3.45047 72.132C3.45047 74.1589 4.96729 75.8662 6.99054 75.8662H63.0287C64.9506 75.8662 66.4674 74.2658 66.4674 72.2389V11.1103C66.4674 9.08343 64.9506 7.48303 63.1295 7.48303ZM32.9867 72.0257C32.9867 73.1989 32.0759 74.1589 30.9634 74.1589H6.99054C5.87812 74.1589 4.96729 73.1989 4.96729 72.0257V68.6116H32.9867V72.0257ZM32.9867 67.1182H5.0687V29.5664H32.9867V67.1182ZM32.9867 27.966H5.0687V24.5519C5.0687 23.592 5.77671 22.7389 6.68692 22.525C6.78834 22.525 6.99054 22.525 7.09195 22.525H31.1656C31.2671 22.525 31.4693 22.525 31.5707 22.525C32.4809 22.7389 33.1889 23.592 33.1889 24.5519V27.966H32.9867ZM31.0649 20.9253H22.9725V16.338H61.0055V66.9049H34.5035C34.5035 50.2626 34.5035 31.38 34.5035 24.5519C34.5035 22.525 32.9867 20.9253 31.0649 20.9253ZM64.9506 72.132C64.9506 73.1989 64.1412 74.1589 63.0287 74.1589H33.8969C33.9983 73.9456 34.0991 73.8387 34.2005 73.6254C34.2005 73.5191 34.2005 73.5191 34.3013 73.4122C34.4027 73.3059 34.4027 73.092 34.4027 72.9857C34.4027 72.8787 34.4027 72.8787 34.4027 72.7724C34.4027 72.5585 34.5035 72.3452 34.5035 72.132V68.6116H61.7135C62.1179 68.6116 62.5229 68.2914 62.5229 67.758V15.4843C62.5229 15.0578 62.2193 14.6307 61.7135 14.6307H22.2645C21.8601 14.6307 21.455 14.9509 21.455 15.4843V20.9253H19.0274V11.1103C19.0274 10.0434 19.8368 9.08343 20.9492 9.08343H63.1295C64.1412 9.08343 65.0514 9.9371 65.0514 11.1103V72.132H64.9506Z" fill="#00B098"/>
</g>
<path d="M8.30579 64.5577H29.7496C30.154 64.5577 30.5591 64.2375 30.5591 63.704V32.8733C30.5591 32.4468 30.2555 32.0197 29.7496 32.0197H8.30579C7.90077 32.0197 7.49637 32.3399 7.49637 32.8733V63.704C7.59778 64.2375 7.90077 64.5577 8.30579 64.5577ZM9.1146 33.727H28.9402V62.9573H9.1146V33.727Z" fill="#00B098"/>
<path d="M23.0739 26.046H14.9815C14.5771 26.046 14.1721 25.7258 14.1721 25.1923C14.1721 24.6588 14.4757 24.3386 14.9815 24.3386H23.0739C23.4783 24.3386 23.8827 24.6588 23.8827 25.1923C23.8827 25.7258 23.4783 26.046 23.0739 26.046Z" fill="#00B098"/>
<path d="M20.5448 71.3852C20.5448 71.4902 20.5349 71.5945 20.5156 71.6975C20.4963 71.8005 20.4677 71.9003 20.4291 71.9974C20.3912 72.0945 20.3445 72.187 20.2891 72.2743C20.2338 72.3616 20.1709 72.4423 20.1006 72.5164C20.0303 72.5912 19.9532 72.6575 19.8704 72.7159C19.7877 72.7743 19.7006 72.8235 19.6085 72.8635C19.5164 72.9036 19.4212 72.9344 19.3236 72.9547C19.2259 72.9751 19.1276 72.9856 19.0274 72.9856C18.9279 72.9856 18.8296 72.9751 18.7319 72.9547C18.6342 72.9344 18.539 72.9036 18.4469 72.8635C18.3549 72.8235 18.2678 72.7743 18.1844 72.7159C18.1016 72.6575 18.0251 72.5912 17.9548 72.5164C17.8845 72.4423 17.8217 72.3616 17.7663 72.2743C17.7109 72.187 17.6643 72.0945 17.6257 71.9974C17.5877 71.9003 17.5591 71.8005 17.5392 71.6975C17.5199 71.5945 17.5106 71.4902 17.5106 71.3852C17.5106 71.2802 17.5199 71.1759 17.5392 71.0728C17.5591 70.9698 17.5877 70.8701 17.6257 70.773C17.6643 70.6759 17.7109 70.5833 17.7663 70.4961C17.8217 70.4088 17.8845 70.3281 17.9548 70.254C18.0251 70.1791 18.1016 70.1129 18.1844 70.0545C18.2678 69.9961 18.3549 69.9469 18.4469 69.9068C18.539 69.8668 18.6342 69.836 18.7319 69.8156C18.8296 69.7953 18.9279 69.7848 19.0274 69.7848C19.1276 69.7848 19.2259 69.7953 19.3236 69.8156C19.4212 69.836 19.5164 69.8668 19.6085 69.9068C19.7006 69.9469 19.7877 69.9961 19.8704 70.0545C19.9532 70.1129 20.0303 70.1791 20.1006 70.254C20.1709 70.3281 20.2338 70.4088 20.2891 70.4961C20.3445 70.5833 20.3912 70.6759 20.4291 70.773C20.4677 70.8701 20.4963 70.9698 20.5156 71.0728C20.5349 71.1759 20.5448 71.2802 20.5448 71.3852Z" fill="#00B098"/>
<mask id="mask1_20_431" style="mask-type:luminance" maskUnits="userSpaceOnUse" x="7" y="32" width="24" height="32">
<path d="M7.59778 32.252H30.4508V63.7198H7.59778V32.252Z" fill="white"/>
</mask>
<g mask="url(#mask1_20_431)">
<path d="M32.0933 36.1378H26.5511L23.6289 33.0728C23.5822 33.0236 23.5355 32.9855 23.4889 32.9468C23.0272 32.542 22.3055 32.252 21.735 32.252H9.05113C8.25166 32.252 7.59778 32.9416 7.59778 33.7841V62.3392C7.59778 63.1824 8.25166 63.872 9.05113 63.872H10.7117V66.2257C10.7117 67.0689 11.3656 67.7585 12.165 67.7585H32.0933C32.8928 67.7585 33.5467 67.0689 33.5467 66.2257V37.6653C33.5467 36.8222 32.8928 36.1378 32.0933 36.1378ZM23.1878 34.3648L28.4089 39.8327H23.4578C23.3072 39.8327 23.1828 39.7014 23.1828 39.5426V34.3648H23.1878ZM8.77614 62.3392V33.7841C8.77614 33.626 8.90057 33.4941 9.05113 33.4941H21.735C21.8228 33.4941 21.9217 33.5105 22.0256 33.538C22.015 33.6148 22.01 33.6968 22.01 33.7789V39.5367C22.01 40.3799 22.6639 41.0695 23.4628 41.0695H28.9794C29.0628 41.0695 29.1405 41.0643 29.2077 41.0531C29.2339 41.1627 29.2494 41.2664 29.2494 41.3596V62.334C29.2494 62.4928 29.125 62.624 28.9744 62.624H9.05113C8.90057 62.6299 8.77614 62.498 8.77614 62.3392ZM32.3689 66.2257C32.3689 66.3845 32.2439 66.5157 32.0933 66.5157H12.165C12.0145 66.5157 11.89 66.3845 11.89 66.2257V63.872H28.9794C29.7789 63.872 30.4328 63.1824 30.4328 62.3392V41.3655C30.4328 40.7631 30.1578 40.0131 29.7739 39.5262C29.7372 39.477 29.6961 39.4278 29.6439 39.3727L27.7395 37.3806H32.0933C32.2439 37.3806 32.3689 37.5118 32.3689 37.6706V66.2257ZM25.9489 45.7165H12.0817C11.8017 45.7165 11.5783 45.4757 11.5783 45.1857C11.5783 44.8957 11.8067 44.6548 12.0817 44.6548H25.9489C26.2289 44.6548 26.4522 44.8957 26.4522 45.1857C26.4522 45.4757 26.2289 45.7165 25.9489 45.7165ZM25.9489 49.603H12.0817C11.8017 49.603 11.5783 49.3622 11.5783 49.0715C11.5783 48.7815 11.8067 48.5407 12.0817 48.5407H25.9489C26.2289 48.5407 26.4522 48.7815 26.4522 49.0715C26.4522 49.3622 26.2289 49.603 25.9489 49.603ZM25.9489 53.4836H12.0817C11.8017 53.4836 11.5783 53.2428 11.5783 52.9527C11.5783 52.6627 11.8067 52.4219 12.0817 52.4219H25.9489C26.2289 52.4219 26.4522 52.6627 26.4522 52.9527C26.4522 53.2428 26.2289 53.4836 25.9489 53.4836ZM18.0295 57.3694H12.0817C11.8017 57.3694 11.5783 57.1286 11.5783 56.8386C11.5783 56.5433 11.8067 56.3077 12.0817 56.3077H18.0295C18.3094 56.3077 18.5328 56.5485 18.5328 56.8386C18.5328 57.1286 18.3094 57.3694 18.0295 57.3694Z" fill="#00B098"/>
</g>
<path d="M28.305 37.1155L26.9051 35.5453" stroke="white" stroke-width="9.00284"/>
<path d="M31.4829 40.9928L32.5474 39.1536" stroke="white" stroke-width="9.00284"/>
<path d="M28.5744 37.3989V35.8287" stroke="white" stroke-width="9.00284"/>
<mask id="mask2_20_431" style="mask-type:luminance" maskUnits="userSpaceOnUse" x="22" y="29" width="11" height="13">
<path d="M22.2981 29.5643H32.9693V41.1549H22.2981V29.5643Z" fill="white"/>
</mask>
<g mask="url(#mask2_20_431)">
<mask id="mask3_20_431" style="mask-type:luminance" maskUnits="userSpaceOnUse" x="22" y="29" width="11" height="12">
<path d="M22.3926 31.8202L24.605 29.5906L32.9145 38.7631L30.7022 40.9928L22.3926 31.8202Z" fill="white"/>
</mask>
<g mask="url(#mask3_20_431)">
<path d="M22.3926 31.8202L24.605 29.5906L32.9127 38.7605L30.6997 40.9902L22.3926 31.8202Z" fill="white"/>
</g>
</g>
<mask id="mask4_20_431" style="mask-type:luminance" maskUnits="userSpaceOnUse" x="25" y="29" width="8" height="9">
<path d="M25.1649 29.5643H32.9693V37.9633H25.1649V29.5643Z" fill="white"/>
</mask>
<g mask="url(#mask4_20_431)">
<mask id="mask5_20_431" style="mask-type:luminance" maskUnits="userSpaceOnUse" x="25" y="29" width="8" height="9">
<path d="M25.2241 32.8098L28.3946 29.6149L32.9152 34.605L29.7446 37.7993L25.2241 32.8098Z" fill="white"/>
</mask>
<g mask="url(#mask5_20_431)">
<path d="M25.2241 32.8098L28.3946 29.6149L32.9145 34.6044L29.744 37.7986L25.2241 32.8098Z" fill="white"/>
</g>
</g>
</svg>
