<svg width="310" height="90" viewBox="0 0 310 90" fill="none" xmlns="http://www.w3.org/2000/svg">
<path d="M9.7086 63.8473C9.00762 63.8473 8.4362 63.6548 7.99435 63.2637C7.55914 62.8757 7.3432 62.4193 7.3432 61.8978V20.3995C7.3432 19.8779 7.54918 19.4247 7.96777 19.0336C8.38305 18.6455 8.87141 18.45 9.42953 18.45H28.1667C30.8045 18.45 33.1666 18.9808 35.2496 20.0394C37.3293 21.101 38.9605 22.5601 40.1398 24.4226C41.3159 26.279 41.9072 28.3713 41.9072 30.7057C41.9072 32.6118 41.5352 34.3626 40.791 35.9582C40.0535 37.5569 39.0136 38.9104 37.6681 40.0187C36.3293 41.1207 34.8277 41.9278 33.1632 42.44L30.7314 41.7322C32.439 41.8657 34.0337 42.3748 35.5154 43.2596C37.0037 44.1474 38.193 45.3581 39.09 46.8978C39.9937 48.4313 40.4721 50.2753 40.5252 52.4359C40.5684 54.2923 40.6714 55.7389 40.8309 56.7819C40.9903 57.8187 41.2295 58.5948 41.5485 59.1163C41.874 59.6317 42.2959 60.0414 42.8109 60.3456C43.2693 60.6033 43.5816 60.9727 43.7411 61.4508C43.9072 61.9226 43.8507 62.3759 43.5683 62.8043C43.3823 63.1519 43.1165 63.4065 42.771 63.5617C42.4255 63.7107 42.0667 63.7852 41.6946 63.7852C41.3292 63.7852 40.9637 63.6983 40.5917 63.5245C39.9438 63.1768 39.2827 62.6397 38.6116 61.9102C37.9372 61.1745 37.3791 60.0942 36.9373 58.6693C36.502 57.2382 36.2861 55.2484 36.2861 52.6966C36.2861 51.0079 35.9937 49.6265 35.409 48.5493C34.831 47.4659 34.0935 46.6339 33.1898 46.0534C32.2928 45.4667 31.3028 45.0538 30.2131 44.8117C29.1235 44.5727 28.0936 44.4516 27.1302 44.4516H10.9577L11.7152 43.5452V61.8978C11.7152 62.4193 11.5292 62.8757 11.1571 63.2637C10.785 63.6548 10.2999 63.8473 9.7086 63.8473ZM10.9577 40.8879H28.3793C29.9474 40.7575 31.4224 40.2732 32.8044 39.4351C34.1931 38.5907 35.3193 37.4359 36.1798 35.9706C37.0369 34.4992 37.4688 32.7856 37.4688 30.8299C37.4688 28.3713 36.5785 26.3318 34.7978 24.7082C33.0171 23.0878 30.6915 22.2745 27.8212 22.2745H11.2235L11.7152 21.368V41.7943L10.9577 40.8879Z" fill="white"/>
<path d="M55.9249 18.45H81.3861C81.9443 18.45 82.4293 18.6362 82.8479 19.0087C83.2632 19.375 83.4725 19.8376 83.4725 20.3995C83.4725 20.9551 83.2632 21.4052 82.8479 21.7529C82.4293 22.1006 81.9443 22.2745 81.3861 22.2745H57.5195L58.2106 21.1693V39.3978L57.4531 38.5534H78.2633C78.8214 38.5534 79.3065 38.749 79.7251 39.137C80.1403 39.5282 80.3496 39.9814 80.3496 40.5029C80.3496 41.0679 80.1403 41.5211 79.7251 41.8688C79.3065 42.2103 78.8214 42.3779 78.2633 42.3779H57.586L58.2106 41.7322V60.4077L57.8651 60.0228H81.3861C81.9443 60.0228 82.4293 60.2184 82.8479 60.6064C83.2632 60.9976 83.4725 61.4508 83.4725 61.9723C83.4725 62.528 83.2632 62.9781 82.8479 63.3258C82.4293 63.6735 81.9443 63.8473 81.3861 63.8473H55.9249C55.3668 63.8473 54.8784 63.6548 54.4631 63.2637C54.0445 62.8757 53.8386 62.4193 53.8386 61.8978V20.3995C53.8386 19.8779 54.0445 19.4247 54.4631 19.0336C54.8784 18.6455 55.3668 18.45 55.9249 18.45Z" fill="white"/>
<path d="M106.651 64.4929C103.132 64.5333 100.076 64.0149 97.4814 62.9408C94.8934 61.8574 92.4217 60.2338 90.0663 58.0732C89.8337 57.8994 89.6344 57.6852 89.4683 57.4276C89.3088 57.173 89.2291 56.8688 89.2291 56.5211C89.2291 55.9996 89.445 55.5246 89.8802 55.0931C90.3221 54.6647 90.8237 54.4474 91.3818 54.4474C91.94 54.4474 92.4483 54.6647 92.91 55.0931C94.7173 56.906 96.7638 58.2905 99.0495 59.2405C101.342 60.1935 103.807 60.6684 106.438 60.6684C108.661 60.6684 110.641 60.3456 112.378 59.6999C114.112 59.048 115.491 58.1167 116.511 56.906C117.527 55.6985 118.039 54.2953 118.039 52.6966C118.039 50.7036 117.458 49.0925 116.298 47.8663C115.135 46.6339 113.607 45.6157 111.714 44.8117C109.817 44.0107 107.714 43.2843 105.401 42.6386C103.505 42.1171 101.697 41.5211 99.9797 40.8506C98.2687 40.18 96.7405 39.3605 95.395 38.392C94.0562 37.4172 93.0164 36.2158 92.2722 34.791C91.5347 33.3692 91.1692 31.637 91.1692 29.6006C91.1692 27.3096 91.8137 25.2763 93.1094 23.5037C94.4117 21.7342 96.2522 20.3435 98.6375 19.3315C101.02 18.3133 103.784 17.8042 106.93 17.8042C109.657 17.8042 112.278 18.2388 114.797 19.108C117.321 19.971 119.321 21.2407 120.803 22.9201C121.501 23.6155 121.853 24.2456 121.853 24.8075C121.853 25.239 121.617 25.6705 121.149 26.0989C120.687 26.5304 120.182 26.7446 119.634 26.7446C119.162 26.7446 118.77 26.5956 118.451 26.2976C117.66 25.388 116.664 24.5778 115.461 23.8638C114.265 23.1529 112.936 22.6035 111.474 22.2123C110.013 21.8243 108.498 21.6287 106.93 21.6287C104.75 21.6287 102.79 21.9453 101.056 22.5724C99.3285 23.1933 97.9631 24.0873 96.9631 25.2545C95.9698 26.4218 95.4748 27.8311 95.4748 29.4764C95.4748 31.2893 96.0263 32.7794 97.1359 33.9466C98.2521 35.1138 99.7072 36.0792 101.508 36.8398C103.315 37.5941 105.235 38.2926 107.275 38.9383C109.269 39.4598 111.175 40.0559 113.003 40.7264C114.827 41.3969 116.444 42.2289 117.853 43.2222C119.268 44.2156 120.381 45.4698 121.189 46.9847C122.002 48.4996 122.411 50.4056 122.411 52.6966C122.411 54.9006 121.737 56.8874 120.391 58.6569C119.052 60.4294 117.215 61.8357 114.876 62.8787C112.538 63.9124 109.793 64.4495 106.651 64.4929Z" fill="white"/>
<path d="M166.608 18.45C167.252 18.45 167.764 18.6362 168.136 19.0087C168.508 19.375 168.694 19.8376 168.694 20.3995V47.2455C168.694 50.4429 167.883 53.3392 166.262 55.9375C164.641 58.5296 162.465 60.594 159.737 62.1337C157.006 63.6673 153.933 64.4309 150.515 64.4309C147.086 64.4309 143.993 63.6673 141.239 62.1337C138.492 60.594 136.309 58.5296 134.688 55.9375C133.067 53.3392 132.256 50.4429 132.256 47.2455V20.3995C132.256 19.8376 132.449 19.375 132.841 19.0087C133.24 18.6362 133.784 18.45 134.475 18.45C135.034 18.45 135.519 18.6362 135.937 19.0087C136.352 19.375 136.562 19.8376 136.562 20.3995V47.2455C136.562 49.7538 137.193 52.0013 138.462 53.988C139.738 55.9748 141.439 57.5642 143.565 58.7562C145.698 59.9483 148.017 60.5443 150.515 60.5443C153.1 60.5443 155.458 59.9483 157.585 58.7562C159.717 57.5642 161.418 55.9748 162.687 53.988C163.963 52.0013 164.601 49.7538 164.601 47.2455V20.3995C164.601 19.8376 164.78 19.375 165.146 19.0087C165.518 18.6362 166.003 18.45 166.608 18.45Z" fill="white"/>
<path d="M196.167 63.8473C195.519 63.8473 194.998 63.6548 194.599 63.2637C194.207 62.8757 194.014 62.4193 194.014 61.8978V20.5857H198.32V61.8978C198.32 62.4193 198.111 62.8757 197.695 63.2637C197.277 63.6548 196.769 63.8473 196.167 63.8473ZM179.649 22.1503C179.098 22.1503 178.616 21.9764 178.201 21.6288C177.782 21.2811 177.576 20.8278 177.576 20.2629C177.576 19.7413 177.782 19.3129 178.201 18.9715C178.616 18.6238 179.098 18.45 179.649 18.45H212.685C213.243 18.45 213.728 18.6238 214.147 18.9715C214.562 19.3129 214.771 19.7631 214.771 20.325C214.771 20.8899 214.562 21.337 214.147 21.666C213.728 21.9889 213.243 22.1503 212.685 22.1503H179.649Z" fill="white"/>
<path d="M225.737 18.45H251.198C251.757 18.45 252.242 18.6362 252.66 19.0087C253.075 19.375 253.285 19.8376 253.285 20.3995C253.285 20.9551 253.075 21.4052 252.66 21.7529C252.242 22.1006 251.757 22.2745 251.198 22.2745H227.332L228.023 21.1693V39.3978L227.265 38.5534H248.076C248.634 38.5534 249.119 38.749 249.537 39.137C249.953 39.5282 250.162 39.9814 250.162 40.5029C250.162 41.0679 249.953 41.5211 249.537 41.8688C249.119 42.2103 248.634 42.3779 248.076 42.3779H227.398L228.023 41.7322V60.4077L227.677 60.0228H251.198C251.757 60.0228 252.242 60.2184 252.66 60.6064C253.075 60.9976 253.285 61.4508 253.285 61.9723C253.285 62.528 253.075 62.9781 252.66 63.3258C252.242 63.6735 251.757 63.8473 251.198 63.8473H225.737C225.179 63.8473 224.691 63.6548 224.275 63.2637C223.857 62.8757 223.651 62.4193 223.651 61.8978V20.3995C223.651 19.8779 223.857 19.4247 224.275 19.0336C224.691 18.6455 225.179 18.45 225.737 18.45Z" fill="white"/>
<path d="M294.23 18.2512C294.788 18.2512 295.26 18.4189 295.652 18.7479C296.051 19.0708 296.25 19.4681 296.25 19.94C296.25 20.3715 296.084 20.7812 295.758 21.1693L279.798 41.4714L277.499 38.2926L292.569 19.0956C293.027 18.5337 293.582 18.2512 294.23 18.2512ZM261.048 18.2512C261.792 18.2512 262.37 18.512 262.789 19.0335L295.758 60.9292C296.084 61.3203 296.25 61.7084 296.25 62.0964C296.25 62.7018 296.014 63.1767 295.546 63.5244C295.084 63.8721 294.602 64.0459 294.097 64.0459C293.353 64.0459 292.795 63.7852 292.423 63.2636L259.387 21.3679C259.068 21.0203 258.908 20.6322 258.908 20.2007C258.908 19.6388 259.124 19.1763 259.56 18.81C260.001 18.4375 260.496 18.2512 261.048 18.2512ZM260.849 64.0459C260.244 64.0459 259.779 63.8628 259.453 63.4996C259.134 63.127 258.975 62.7483 258.975 62.3572C258.975 61.9691 259.134 61.5345 259.453 61.0534L275.426 40.7636L277.646 44.0045L262.51 63.2015C262.091 63.7665 261.54 64.0459 260.849 64.0459Z" fill="white"/>
<mask id="mask0_20_760" style="mask-type:luminance" maskUnits="userSpaceOnUse" x="126" y="12" width="17" height="16">
<path d="M126.722 12.8643H142.449V27.6656H126.722V12.8643Z" fill="white"/>
</mask>
<g mask="url(#mask0_20_760)">
<mask id="mask1_20_760" style="mask-type:luminance" maskUnits="userSpaceOnUse" x="125" y="12" width="18" height="17">
<path d="M125.974 20.1965C125.974 24.5705 129.768 28.1187 134.452 28.1187C139.137 28.1187 142.931 24.5705 142.931 20.1965C142.931 15.8195 139.137 12.2712 134.452 12.2712C129.768 12.2712 125.974 15.8195 125.974 20.1965Z" fill="white"/>
</mask>
<g mask="url(#mask1_20_760)">
<mask id="mask2_20_760" style="mask-type:luminance" maskUnits="userSpaceOnUse" x="126" y="12" width="17" height="16">
<path d="M134.452 12.9822C138.715 12.9822 142.17 16.2107 142.17 20.1966C142.17 24.1794 138.715 27.4079 134.452 27.4079C130.19 27.4079 126.735 24.1794 126.735 20.1966C126.735 16.2107 130.19 12.9822 134.452 12.9822Z" fill="white"/>
</mask>
<g mask="url(#mask2_20_760)">
<path d="M134.449 28.1125C129.765 28.1125 125.974 24.5426 125.974 20.1903C125.974 15.8412 129.765 12.2712 134.449 12.2712C139.13 12.2712 142.924 15.8164 142.924 20.1903C142.924 24.5674 139.103 28.1125 134.449 28.1125ZM134.449 12.7617C130.054 12.7617 126.496 16.0864 126.496 20.1903C126.496 24.2973 130.054 27.622 134.449 27.622C138.844 27.622 142.402 24.2973 142.402 20.1903C142.402 16.0864 138.818 12.7617 134.449 12.7617Z" fill="white"/>
</g>
</g>
</g>
<mask id="mask3_20_760" style="mask-type:luminance" maskUnits="userSpaceOnUse" x="125" y="12" width="19" height="17">
<path d="M125.974 12.2712H143.073V28.2522H125.974V12.2712Z" fill="white"/>
</mask>
<g mask="url(#mask3_20_760)">
<mask id="mask4_20_760" style="mask-type:luminance" maskUnits="userSpaceOnUse" x="125" y="12" width="18" height="17">
<path d="M125.974 20.1965C125.974 24.5705 129.768 28.1187 134.452 28.1187C139.137 28.1187 142.931 24.5705 142.931 20.1965C142.931 15.8195 139.137 12.2712 134.452 12.2712C129.768 12.2712 125.974 15.8195 125.974 20.1965Z" fill="white"/>
</mask>
<g mask="url(#mask4_20_760)">
<mask id="mask5_20_760" style="mask-type:luminance" maskUnits="userSpaceOnUse" x="125" y="12" width="18" height="17">
<path d="M125.974 20.1903C125.974 24.5643 129.768 28.1125 134.449 28.1125C139.13 28.1125 142.924 24.5643 142.924 20.1903C142.924 15.8195 139.13 12.2712 134.449 12.2712C129.768 12.2712 125.974 15.8195 125.974 20.1903Z" fill="white"/>
</mask>
<g mask="url(#mask5_20_760)">
<path d="M125.974 20.1903C125.974 24.5643 129.768 28.1125 134.449 28.1125C139.13 28.1125 142.924 24.5643 142.924 20.1903C142.924 15.8195 139.13 12.2712 134.449 12.2712C129.768 12.2712 125.974 15.8195 125.974 20.1903Z" stroke="white" stroke-width="5.96053"/>
</g>
</g>
</g>
<mask id="mask6_20_760" style="mask-type:luminance" maskUnits="userSpaceOnUse" x="157" y="12" width="17" height="16">
<path d="M157.867 12.8643H173.498V27.6656H157.867V12.8643Z" fill="white"/>
</mask>
<g mask="url(#mask6_20_760)">
<mask id="mask7_20_760" style="mask-type:luminance" maskUnits="userSpaceOnUse" x="157" y="12" width="18" height="17">
<path d="M157.233 20.1965C157.233 24.5705 161.026 28.1187 165.711 28.1187C170.395 28.1187 174.189 24.5705 174.189 20.1965C174.189 15.8195 170.395 12.2712 165.711 12.2712C161.026 12.2712 157.233 15.8195 157.233 20.1965Z" fill="white"/>
</mask>
<g mask="url(#mask7_20_760)">
<mask id="mask8_20_760" style="mask-type:luminance" maskUnits="userSpaceOnUse" x="157" y="12" width="17" height="16">
<path d="M165.711 12.9822C169.973 12.9822 173.428 16.2107 173.428 20.1966C173.428 24.1794 169.973 27.4079 165.711 27.4079C161.448 27.4079 157.993 24.1794 157.993 20.1966C157.993 16.2107 161.448 12.9822 165.711 12.9822Z" fill="white"/>
</mask>
<g mask="url(#mask8_20_760)">
<path d="M165.707 28.1125C161.023 28.1125 157.233 24.5426 157.233 20.1903C157.233 15.8412 161.023 12.2712 165.707 12.2712C170.388 12.2712 174.182 15.8164 174.182 20.1903C174.182 24.5674 170.362 28.1125 165.707 28.1125ZM165.707 12.7617C161.312 12.7617 157.754 16.0864 157.754 20.1903C157.754 24.2973 161.312 27.622 165.707 27.622C170.103 27.622 173.661 24.2973 173.661 20.1903C173.661 16.0864 170.076 12.7617 165.707 12.7617Z" fill="white"/>
</g>
</g>
</g>
<mask id="mask9_20_760" style="mask-type:luminance" maskUnits="userSpaceOnUse" x="157" y="12" width="18" height="17">
<path d="M157.232 12.2712H174.332V28.2522H157.232V12.2712Z" fill="white"/>
</mask>
<g mask="url(#mask9_20_760)">
<mask id="mask10_20_760" style="mask-type:luminance" maskUnits="userSpaceOnUse" x="157" y="12" width="18" height="17">
<path d="M157.232 20.1965C157.232 24.5705 161.026 28.1187 165.711 28.1187C170.395 28.1187 174.189 24.5705 174.189 20.1965C174.189 15.8195 170.395 12.2712 165.711 12.2712C161.026 12.2712 157.232 15.8195 157.232 20.1965Z" fill="white"/>
</mask>
<g mask="url(#mask10_20_760)">
<mask id="mask11_20_760" style="mask-type:luminance" maskUnits="userSpaceOnUse" x="157" y="12" width="18" height="17">
<path d="M157.232 20.1903C157.232 24.5643 161.026 28.1125 165.707 28.1125C170.388 28.1125 174.182 24.5643 174.182 20.1903C174.182 15.8195 170.388 12.2712 165.707 12.2712C161.026 12.2712 157.232 15.8195 157.232 20.1903Z" fill="white"/>
</mask>
<g mask="url(#mask11_20_760)">
<path d="M157.232 20.1903C157.232 24.5643 161.026 28.1125 165.707 28.1125C170.388 28.1125 174.182 24.5643 174.182 20.1903C174.182 15.8195 170.388 12.2712 165.707 12.2712C161.026 12.2712 157.232 15.8195 157.232 20.1903Z" stroke="white" stroke-width="5.96053"/>
</g>
</g>
</g>
<mask id="mask12_20_760" style="mask-type:luminance" maskUnits="userSpaceOnUse" x="146" y="61" width="31" height="28">
<path d="M146.283 61.1921H176.9V88.212H146.283V61.1921Z" fill="white"/>
</mask>
<g mask="url(#mask12_20_760)">
<mask id="mask13_20_760" style="mask-type:luminance" maskUnits="userSpaceOnUse" x="145" y="61" width="32" height="28">
<path d="M176.867 62.2415L176.332 88.2897L145.92 87.7465L146.455 61.6982L176.867 62.2415Z" fill="white"/>
</mask>
<g mask="url(#mask13_20_760)">
<mask id="mask14_20_760" style="mask-type:luminance" maskUnits="userSpaceOnUse" x="146" y="61" width="72" height="29">
<path d="M217.856 62.974L217.321 89.0222L146.362 87.7526L146.897 61.7043L217.856 62.974Z" fill="white"/>
</mask>
<g mask="url(#mask14_20_760)">
<path d="M168.452 82.9565L168.535 78.8743C168.541 78.5484 168.614 78.2348 168.757 77.9368C168.897 77.6357 169.093 77.3718 169.345 77.1452C169.598 76.9186 169.887 76.7448 170.212 76.6268C170.538 76.5088 170.873 76.4499 171.226 76.4561L177.325 76.5647L177.275 78.9488C177.272 79.1599 177.292 79.371 177.332 79.579C177.372 79.787 177.431 79.9919 177.518 80.1905C177.601 80.3861 177.704 80.5755 177.827 80.7524C177.946 80.9325 178.089 81.097 178.245 81.2491C178.405 81.4043 178.574 81.5409 178.76 81.662C178.95 81.7831 179.146 81.8855 179.355 81.9693C179.561 82.0562 179.777 82.1214 179.999 82.168C180.222 82.2115 180.445 82.2363 180.674 82.2425L182.082 82.2673C182.149 82.615 182.249 82.9565 182.381 83.2886C182.514 83.6208 182.674 83.9405 182.863 84.2479C183.053 84.5552 183.272 84.8439 183.514 85.1171C183.757 85.3903 184.023 85.6417 184.312 85.8714C184.601 86.1011 184.91 86.306 185.235 86.4861C185.564 86.6661 185.903 86.8182 186.258 86.9455C186.614 87.0697 186.979 87.1659 187.351 87.2342C187.724 87.3025 188.099 87.3398 188.478 87.346L200.673 87.5664C201.075 87.5726 201.474 87.5446 201.869 87.4857C202.265 87.4236 202.65 87.3304 203.026 87.2032C203.404 87.079 203.766 86.9238 204.112 86.7344C204.461 86.5482 204.786 86.334 205.092 86.0918C205.398 85.8497 205.677 85.5827 205.929 85.294C206.185 85.0053 206.408 84.6949 206.604 84.3689C206.796 84.0399 206.959 83.7015 207.085 83.3445C207.215 82.9906 207.308 82.6274 207.364 82.258L215.972 82.4132C216.168 82.4163 216.358 82.3853 216.54 82.317C216.723 82.2487 216.886 82.1525 217.029 82.0252C217.171 81.8979 217.281 81.7489 217.361 81.5813C217.437 81.4136 217.48 81.2367 217.484 81.0504C217.487 80.8673 217.454 80.6903 217.381 80.5196C217.311 80.3489 217.205 80.1968 217.068 80.0633C216.932 79.9298 216.773 79.8273 216.593 79.7528C216.414 79.6814 216.225 79.6411 216.029 79.638L207.474 79.4859L207.63 71.7872L216.185 71.9393C216.381 71.9424 216.573 71.9114 216.756 71.8462C216.939 71.7779 217.102 71.6816 217.245 71.5513C217.384 71.424 217.494 71.2781 217.573 71.1074C217.653 70.9397 217.693 70.7628 217.7 70.5796C217.703 70.3965 217.666 70.2195 217.597 70.0457C217.524 69.8749 217.421 69.7228 217.284 69.5925C217.148 69.459 216.989 69.3565 216.809 69.282C216.627 69.2075 216.441 69.1703 216.241 69.1672L207.59 69.0119C207.527 68.655 207.434 68.3042 207.308 67.9627C207.185 67.6212 207.025 67.2922 206.839 66.9755C206.653 66.662 206.437 66.364 206.195 66.0815C205.949 65.8021 205.683 65.5413 205.391 65.3054C205.099 65.0664 204.79 64.8553 204.457 64.669C204.125 64.4828 203.78 64.3244 203.421 64.1941C203.059 64.0637 202.69 63.9643 202.308 63.8929C201.929 63.8247 201.547 63.7843 201.162 63.7781L188.963 63.5608C188.584 63.5546 188.205 63.5763 187.83 63.6322C187.458 63.685 187.089 63.7688 186.73 63.8836C186.368 63.9954 186.023 64.1351 185.687 64.3058C185.355 64.4735 185.039 64.6659 184.74 64.8863C184.441 65.1067 184.166 65.3458 183.91 65.6096C183.657 65.8735 183.428 66.156 183.225 66.454C183.023 66.7551 182.85 67.0687 182.704 67.3977C182.558 67.7237 182.445 68.062 182.362 68.4066L180.953 68.3818C180.727 68.3787 180.501 68.3973 180.279 68.4345C180.053 68.4718 179.837 68.5277 179.624 68.6053C179.411 68.6829 179.212 68.7791 179.019 68.894C178.83 69.0088 178.651 69.1392 178.488 69.2882C178.325 69.4341 178.176 69.5956 178.046 69.7694C177.916 69.9432 177.807 70.1295 177.717 70.322C177.624 70.5175 177.554 70.7193 177.505 70.9242C177.458 71.1322 177.431 71.3433 177.425 71.5544L177.378 73.7895L171.279 73.6808C170.91 73.6715 170.545 73.6994 170.182 73.7615C169.82 73.8205 169.468 73.9136 169.123 74.0409C168.78 74.1651 168.455 74.3234 168.143 74.5066C167.834 74.6928 167.545 74.907 167.282 75.1461C167.016 75.3851 166.777 75.6427 166.568 75.9252C166.355 76.2077 166.176 76.5088 166.03 76.8224C165.883 77.139 165.771 77.465 165.691 77.8002C165.611 78.1386 165.568 78.477 165.561 78.8216L165.478 82.9006C165.482 83.2328 165.412 83.5525 165.276 83.8598C165.139 84.1672 164.947 84.4372 164.691 84.6701C164.438 84.9029 164.146 85.0798 163.817 85.204C163.488 85.3282 163.143 85.3872 162.787 85.3809C162.432 85.3716 162.093 85.3033 161.767 85.1667C161.442 85.0333 161.159 84.8439 160.914 84.6018C160.671 84.3596 160.488 84.0833 160.365 83.7698C160.239 83.4594 160.186 83.1365 160.203 82.8044L160.521 67.2425C160.528 66.901 160.498 66.5595 160.432 66.2212C160.369 65.8828 160.269 65.5537 160.133 65.234C160 64.9112 159.834 64.6069 159.634 64.3182C159.435 64.0295 159.209 63.7595 158.953 63.5111C158.698 63.2659 158.419 63.0424 158.116 62.8468C157.814 62.6481 157.495 62.4805 157.159 62.3439C156.821 62.2073 156.472 62.1018 156.113 62.0273C155.754 61.9528 155.389 61.9124 155.023 61.9062L148.263 61.7851C148.067 61.782 147.877 61.8131 147.695 61.8783C147.512 61.9465 147.349 62.0428 147.206 62.1732C147.063 62.3004 146.954 62.4463 146.874 62.6171C146.798 62.7847 146.754 62.9617 146.751 63.1448C146.748 63.328 146.781 63.5049 146.854 63.6787C146.924 63.8495 147.03 64.0016 147.166 64.132C147.303 64.2655 147.462 64.3679 147.641 64.4424C147.821 64.5169 148.01 64.5542 148.206 64.5573L154.97 64.6783C155.319 64.6876 155.654 64.7559 155.977 64.8863C156.296 65.0167 156.578 65.1999 156.821 65.4358C157.063 65.6717 157.249 65.9418 157.375 66.246C157.505 66.5502 157.565 66.8669 157.558 67.1928L157.239 82.7547C157.233 83.0993 157.262 83.4408 157.326 83.7791C157.392 84.1175 157.492 84.4466 157.625 84.7663C157.761 85.086 157.927 85.3934 158.123 85.6821C158.322 85.9708 158.551 86.2408 158.804 86.4892C159.06 86.7344 159.339 86.9579 159.641 87.1535C159.943 87.3522 160.262 87.5167 160.601 87.6564C160.937 87.793 161.286 87.8985 161.648 87.973C162.007 88.0475 162.369 88.0879 162.737 88.0941C163.106 88.1003 163.472 88.0724 163.834 88.0134C164.196 87.9513 164.548 87.8582 164.89 87.734C165.236 87.6067 165.561 87.4515 165.87 87.2653C166.179 87.079 166.468 86.8679 166.734 86.6289C167 86.3898 167.236 86.1322 167.448 85.8497C167.658 85.5672 167.837 85.2661 167.983 84.9526C168.133 84.6359 168.246 84.31 168.322 83.9747C168.402 83.6394 168.445 83.298 168.452 82.9565ZM204.703 70.0488L204.467 81.4447C204.464 81.6682 204.434 81.8917 204.384 82.1121C204.331 82.3294 204.258 82.5436 204.162 82.7485C204.065 82.9565 203.949 83.1521 203.813 83.3352C203.673 83.5215 203.517 83.6891 203.344 83.8474C203.172 84.0026 202.982 84.1423 202.78 84.2634C202.577 84.3845 202.364 84.4869 202.142 84.5676C201.916 84.6483 201.687 84.7104 201.451 84.7508C201.212 84.7911 200.972 84.8067 200.733 84.8035L190.341 84.6173L190.717 66.364L201.105 66.5502C201.345 66.5533 201.584 66.5813 201.82 66.6278C202.055 66.6775 202.281 66.7458 202.504 66.8358C202.723 66.9259 202.933 67.0345 203.132 67.1649C203.328 67.2922 203.511 67.4381 203.677 67.5995C203.846 67.7609 203.992 67.9379 204.122 68.1272C204.255 68.3166 204.361 68.5153 204.451 68.7263C204.537 68.9343 204.604 69.1516 204.647 69.372C204.687 69.5956 204.707 69.816 204.703 70.0426V70.0488ZM187.747 66.4881L187.378 84.3814C187.016 84.2603 186.684 84.0927 186.378 83.8723C186.072 83.655 185.81 83.3973 185.591 83.1024C185.371 82.8075 185.209 82.4877 185.096 82.1432C184.986 81.7986 184.933 81.4478 184.94 81.0877L185.175 69.6918C185.182 69.3348 185.249 68.984 185.375 68.6456C185.498 68.3042 185.677 67.9906 185.906 67.7019C186.139 67.4163 186.411 67.168 186.724 66.96C187.039 66.752 187.378 66.5968 187.747 66.4881ZM180.9 71.1539L182.176 71.1788L182.003 79.4952L180.73 79.4735C180.594 79.4704 180.478 79.4238 180.382 79.3307C180.289 79.2406 180.242 79.1289 180.245 79.0016L180.395 71.6071C180.398 71.4799 180.448 71.3712 180.548 71.2843C180.647 71.1974 180.764 71.1539 180.9 71.1539Z" fill="white"/>
</g>
</g>
</g>
</svg>
