<svg width="310" height="90" viewBox="0 0 310 90" fill="none" xmlns="http://www.w3.org/2000/svg">
<path d="M9.7086 63.8473C9.00762 63.8473 8.4362 63.6548 7.99435 63.2637C7.55914 62.8757 7.3432 62.4193 7.3432 61.8978V20.3995C7.3432 19.8779 7.54918 19.4247 7.96777 19.0336C8.38305 18.6455 8.87141 18.45 9.42953 18.45H28.1667C30.8045 18.45 33.1666 18.9808 35.2496 20.0394C37.3293 21.101 38.9605 22.5601 40.1398 24.4226C41.3159 26.279 41.9072 28.3713 41.9072 30.7057C41.9072 32.6118 41.5352 34.3626 40.791 35.9582C40.0535 37.5569 39.0136 38.9104 37.6681 40.0187C36.3293 41.1207 34.8277 41.9278 33.1632 42.44L30.7314 41.7322C32.439 41.8657 34.0337 42.3748 35.5154 43.2596C37.0037 44.1474 38.193 45.3581 39.09 46.8978C39.9937 48.4313 40.4721 50.2753 40.5252 52.4359C40.5684 54.2923 40.6714 55.7389 40.8309 56.7819C40.9903 57.8187 41.2295 58.5948 41.5485 59.1163C41.874 59.6317 42.2959 60.0414 42.8109 60.3456C43.2693 60.6033 43.5816 60.9727 43.7411 61.4508C43.9072 61.9226 43.8507 62.3759 43.5683 62.8043C43.3823 63.1519 43.1165 63.4065 42.771 63.5617C42.4255 63.7107 42.0667 63.7852 41.6946 63.7852C41.3292 63.7852 40.9637 63.6983 40.5917 63.5245C39.9438 63.1768 39.2827 62.6397 38.6116 61.9102C37.9372 61.1745 37.3791 60.0942 36.9373 58.6693C36.502 57.2382 36.2861 55.2484 36.2861 52.6966C36.2861 51.0079 35.9937 49.6265 35.409 48.5493C34.831 47.4659 34.0935 46.6339 33.1898 46.0534C32.2928 45.4667 31.3028 45.0538 30.2131 44.8117C29.1235 44.5727 28.0936 44.4516 27.1302 44.4516H10.9577L11.7152 43.5452V61.8978C11.7152 62.4193 11.5292 62.8757 11.1571 63.2637C10.785 63.6548 10.2999 63.8473 9.7086 63.8473ZM10.9577 40.8879H28.3793C29.9474 40.7575 31.4224 40.2732 32.8044 39.4351C34.1931 38.5907 35.3193 37.4359 36.1798 35.9706C37.0369 34.4992 37.4688 32.7856 37.4688 30.8299C37.4688 28.3713 36.5785 26.3318 34.7978 24.7082C33.0171 23.0878 30.6915 22.2745 27.8212 22.2745H11.2235L11.7152 21.368V41.7943L10.9577 40.8879Z" fill="#2F4858"/>
<path d="M55.9249 18.45H81.3862C81.9443 18.45 82.4293 18.6362 82.8479 19.0087C83.2632 19.375 83.4725 19.8376 83.4725 20.3995C83.4725 20.9551 83.2632 21.4052 82.8479 21.7529C82.4293 22.1006 81.9443 22.2745 81.3862 22.2745H57.5196L58.2106 21.1693V39.3978L57.4531 38.5534H78.2633C78.8214 38.5534 79.3065 38.749 79.7251 39.137C80.1404 39.5282 80.3497 39.9814 80.3497 40.5029C80.3497 41.0679 80.1404 41.5211 79.7251 41.8688C79.3065 42.2103 78.8214 42.3779 78.2633 42.3779H57.586L58.2106 41.7322V60.4077L57.8651 60.0228H81.3862C81.9443 60.0228 82.4293 60.2184 82.8479 60.6064C83.2632 60.9976 83.4725 61.4508 83.4725 61.9723C83.4725 62.528 83.2632 62.9781 82.8479 63.3258C82.4293 63.6735 81.9443 63.8473 81.3862 63.8473H55.9249C55.3668 63.8473 54.8784 63.6548 54.4632 63.2637C54.0446 62.8757 53.8386 62.4193 53.8386 61.8978V20.3995C53.8386 19.8779 54.0446 19.4247 54.4632 19.0336C54.8784 18.6455 55.3668 18.45 55.9249 18.45Z" fill="#2F4858"/>
<path d="M106.651 64.493C103.132 64.5334 100.076 64.0149 97.4814 62.9409C94.8934 61.8575 92.4217 60.2339 90.0663 58.0733C89.8337 57.8995 89.6344 57.6853 89.4683 57.4276C89.3088 57.1731 89.2291 56.8688 89.2291 56.5212C89.2291 55.9996 89.445 55.5247 89.8802 55.0932C90.3221 54.6648 90.8237 54.4475 91.3818 54.4475C91.94 54.4475 92.4483 54.6648 92.91 55.0932C94.7173 56.9061 96.7638 58.2906 99.0495 59.2405C101.342 60.1935 103.807 60.6685 106.438 60.6685C108.661 60.6685 110.641 60.3457 112.378 59.7C114.112 59.0481 115.491 58.1168 116.511 56.9061C117.527 55.6985 118.039 54.2954 118.039 52.6967C118.039 50.7037 117.458 49.0926 116.298 47.8664C115.135 46.6339 113.607 45.6157 111.714 44.8117C109.817 44.0108 107.714 43.2844 105.401 42.6387C103.505 42.1172 101.697 41.5212 99.9797 40.8506C98.2687 40.1801 96.7405 39.3606 95.395 38.392C94.0562 37.4173 93.0164 36.2159 92.2722 34.791C91.5347 33.3692 91.1692 31.637 91.1692 29.6006C91.1692 27.3096 91.8137 25.2763 93.1094 23.5038C94.4117 21.7343 96.2522 20.3436 98.6375 19.3316C101.02 18.3134 103.784 17.8043 106.93 17.8043C109.657 17.8043 112.278 18.2389 114.797 19.1081C117.321 19.9711 119.321 21.2407 120.803 22.9202C121.501 23.6155 121.853 24.2457 121.853 24.8076C121.853 25.2391 121.617 25.6706 121.149 26.099C120.687 26.5305 120.182 26.7447 119.634 26.7447C119.162 26.7447 118.77 26.5957 118.451 26.2976C117.66 25.3881 116.664 24.5779 115.461 23.8639C114.265 23.153 112.936 22.6035 111.474 22.2124C110.013 21.8243 108.498 21.6288 106.93 21.6288C104.75 21.6288 102.79 21.9454 101.056 22.5725C99.3285 23.1933 97.9631 24.0874 96.9631 25.2546C95.9698 26.4218 95.4748 27.8312 95.4748 29.4764C95.4748 31.2894 96.0263 32.7794 97.1359 33.9466C98.2521 35.1139 99.7072 36.0793 101.508 36.8399C103.315 37.5942 105.235 38.2927 107.275 38.9384C109.269 39.4599 111.175 40.0559 113.003 40.7264C114.827 41.397 116.444 42.2289 117.853 43.2223C119.268 44.2157 120.381 45.4698 121.189 46.9847C122.002 48.4996 122.411 50.4057 122.411 52.6967C122.411 54.9007 121.737 56.8875 120.391 58.6569C119.052 60.4295 117.215 61.8357 114.876 62.8788C112.538 63.9125 109.793 64.4495 106.651 64.493Z" fill="#2F4858"/>
<path d="M166.608 18.45C167.252 18.45 167.764 18.6362 168.136 19.0087C168.508 19.375 168.694 19.8376 168.694 20.3995V47.2455C168.694 50.4429 167.883 53.3392 166.262 55.9375C164.641 58.5296 162.465 60.594 159.737 62.1337C157.006 63.6673 153.933 64.4309 150.515 64.4309C147.086 64.4309 143.993 63.6673 141.239 62.1337C138.492 60.594 136.309 58.5296 134.688 55.9375C133.067 53.3392 132.256 50.4429 132.256 47.2455V20.3995C132.256 19.8376 132.449 19.375 132.841 19.0087C133.24 18.6362 133.784 18.45 134.475 18.45C135.034 18.45 135.519 18.6362 135.937 19.0087C136.352 19.375 136.562 19.8376 136.562 20.3995V47.2455C136.562 49.7538 137.193 52.0013 138.462 53.988C139.738 55.9748 141.439 57.5642 143.565 58.7562C145.698 59.9483 148.017 60.5443 150.515 60.5443C153.1 60.5443 155.458 59.9483 157.585 58.7562C159.717 57.5642 161.418 55.9748 162.687 53.988C163.963 52.0013 164.601 49.7538 164.601 47.2455V20.3995C164.601 19.8376 164.78 19.375 165.146 19.0087C165.518 18.6362 166.003 18.45 166.608 18.45Z" fill="#2F4858"/>
<path d="M196.167 63.8473C195.519 63.8473 194.998 63.6548 194.599 63.2637C194.207 62.8757 194.014 62.4193 194.014 61.8978V20.5857H198.32V61.8978C198.32 62.4193 198.111 62.8757 197.695 63.2637C197.277 63.6548 196.769 63.8473 196.167 63.8473ZM179.649 22.1503C179.098 22.1503 178.616 21.9764 178.201 21.6288C177.782 21.2811 177.576 20.8278 177.576 20.2629C177.576 19.7413 177.782 19.3129 178.201 18.9715C178.616 18.6238 179.098 18.45 179.649 18.45H212.685C213.243 18.45 213.728 18.6238 214.147 18.9715C214.562 19.3129 214.771 19.7631 214.771 20.325C214.771 20.8899 214.562 21.337 214.147 21.666C213.728 21.9889 213.243 22.1503 212.685 22.1503H179.649Z" fill="#2F4858"/>
<path d="M225.737 18.45H251.198C251.757 18.45 252.242 18.6362 252.66 19.0087C253.075 19.375 253.285 19.8376 253.285 20.3995C253.285 20.9551 253.075 21.4052 252.66 21.7529C252.242 22.1006 251.757 22.2745 251.198 22.2745H227.332L228.023 21.1693V39.3978L227.265 38.5534H248.076C248.634 38.5534 249.119 38.749 249.537 39.137C249.953 39.5282 250.162 39.9814 250.162 40.5029C250.162 41.0679 249.953 41.5211 249.537 41.8688C249.119 42.2103 248.634 42.3779 248.076 42.3779H227.398L228.023 41.7322V60.4077L227.677 60.0228H251.198C251.757 60.0228 252.242 60.2184 252.66 60.6064C253.075 60.9976 253.285 61.4508 253.285 61.9723C253.285 62.528 253.075 62.9781 252.66 63.3258C252.242 63.6735 251.757 63.8473 251.198 63.8473H225.737C225.179 63.8473 224.691 63.6548 224.275 63.2637C223.857 62.8757 223.651 62.4193 223.651 61.8978V20.3995C223.651 19.8779 223.857 19.4247 224.275 19.0336C224.691 18.6455 225.179 18.45 225.737 18.45Z" fill="#2F4858"/>
<path d="M294.23 18.2513C294.788 18.2513 295.26 18.4189 295.652 18.748C296.051 19.0708 296.25 19.4682 296.25 19.94C296.25 20.3715 296.084 20.7813 295.758 21.1693L279.798 41.4715L277.499 38.2927L292.569 19.0957C293.027 18.5338 293.582 18.2513 294.23 18.2513ZM261.048 18.2513C261.792 18.2513 262.37 18.512 262.789 19.0336L295.758 60.9293C296.084 61.3204 296.25 61.7084 296.25 62.0965C296.25 62.7018 296.014 63.1768 295.546 63.5245C295.084 63.8721 294.602 64.046 294.097 64.046C293.353 64.046 292.795 63.7852 292.423 63.2637L259.387 21.368C259.068 21.0203 258.908 20.6323 258.908 20.2008C258.908 19.6389 259.124 19.1764 259.56 18.8101C260.001 18.4375 260.496 18.2513 261.048 18.2513ZM260.849 64.046C260.244 64.046 259.779 63.8628 259.453 63.4996C259.134 63.1271 258.975 62.7484 258.975 62.3572C258.975 61.9692 259.134 61.5346 259.453 61.0534L275.426 40.7637L277.646 44.0046L262.51 63.2016C262.091 63.7666 261.54 64.046 260.849 64.046Z" fill="#2F4858"/>
<mask id="mask0_17_64" style="mask-type:luminance" maskUnits="userSpaceOnUse" x="126" y="12" width="17" height="16">
<path d="M126.722 12.8642H142.449V27.6656H126.722V12.8642Z" fill="white"/>
</mask>
<g mask="url(#mask0_17_64)">
<mask id="mask1_17_64" style="mask-type:luminance" maskUnits="userSpaceOnUse" x="125" y="12" width="18" height="17">
<path d="M125.974 20.1966C125.974 24.5706 129.768 28.1188 134.452 28.1188C139.137 28.1188 142.931 24.5706 142.931 20.1966C142.931 15.8195 139.137 12.2713 134.452 12.2713C129.768 12.2713 125.974 15.8195 125.974 20.1966Z" fill="white"/>
</mask>
<g mask="url(#mask1_17_64)">
<mask id="mask2_17_64" style="mask-type:luminance" maskUnits="userSpaceOnUse" x="126" y="12" width="17" height="16">
<path d="M134.452 12.9822C138.715 12.9822 142.17 16.2107 142.17 20.1966C142.17 24.1794 138.715 27.4079 134.452 27.4079C130.19 27.4079 126.735 24.1794 126.735 20.1966C126.735 16.2107 130.19 12.9822 134.452 12.9822Z" fill="white"/>
</mask>
<g mask="url(#mask2_17_64)">
<path d="M134.449 28.1126C129.765 28.1126 125.974 24.5426 125.974 20.1904C125.974 15.8413 129.765 12.2713 134.449 12.2713C139.13 12.2713 142.924 15.8164 142.924 20.1904C142.924 24.5675 139.103 28.1126 134.449 28.1126ZM134.449 12.7618C130.054 12.7618 126.496 16.0865 126.496 20.1904C126.496 24.2974 130.054 27.6221 134.449 27.6221C138.844 27.6221 142.402 24.2974 142.402 20.1904C142.402 16.0865 138.818 12.7618 134.449 12.7618Z" fill="#2F4858"/>
</g>
</g>
</g>
<mask id="mask3_17_64" style="mask-type:luminance" maskUnits="userSpaceOnUse" x="125" y="12" width="19" height="17">
<path d="M125.974 12.2713H143.073V28.2523H125.974V12.2713Z" fill="white"/>
</mask>
<g mask="url(#mask3_17_64)">
<mask id="mask4_17_64" style="mask-type:luminance" maskUnits="userSpaceOnUse" x="125" y="12" width="18" height="17">
<path d="M125.974 20.1966C125.974 24.5706 129.768 28.1188 134.452 28.1188C139.137 28.1188 142.931 24.5706 142.931 20.1966C142.931 15.8195 139.137 12.2713 134.452 12.2713C129.768 12.2713 125.974 15.8195 125.974 20.1966Z" fill="white"/>
</mask>
<g mask="url(#mask4_17_64)">
<mask id="mask5_17_64" style="mask-type:luminance" maskUnits="userSpaceOnUse" x="125" y="12" width="18" height="17">
<path d="M125.974 20.1904C125.974 24.5643 129.768 28.1126 134.449 28.1126C139.13 28.1126 142.924 24.5643 142.924 20.1904C142.924 15.8195 139.13 12.2713 134.449 12.2713C129.768 12.2713 125.974 15.8195 125.974 20.1904Z" fill="white"/>
</mask>
<g mask="url(#mask5_17_64)">
<path d="M125.974 20.1904C125.974 24.5644 129.768 28.1126 134.449 28.1126C139.13 28.1126 142.924 24.5644 142.924 20.1904C142.924 15.8195 139.13 12.2713 134.449 12.2713C129.768 12.2713 125.974 15.8195 125.974 20.1904Z" stroke="#2F4858" stroke-width="5.96053"/>
</g>
</g>
</g>
<mask id="mask6_17_64" style="mask-type:luminance" maskUnits="userSpaceOnUse" x="157" y="12" width="17" height="16">
<path d="M157.867 12.8642H173.498V27.6656H157.867V12.8642Z" fill="white"/>
</mask>
<g mask="url(#mask6_17_64)">
<mask id="mask7_17_64" style="mask-type:luminance" maskUnits="userSpaceOnUse" x="157" y="12" width="18" height="17">
<path d="M157.233 20.1966C157.233 24.5706 161.026 28.1188 165.711 28.1188C170.395 28.1188 174.189 24.5706 174.189 20.1966C174.189 15.8195 170.395 12.2713 165.711 12.2713C161.026 12.2713 157.233 15.8195 157.233 20.1966Z" fill="white"/>
</mask>
<g mask="url(#mask7_17_64)">
<mask id="mask8_17_64" style="mask-type:luminance" maskUnits="userSpaceOnUse" x="157" y="12" width="17" height="16">
<path d="M165.711 12.9822C169.973 12.9822 173.428 16.2107 173.428 20.1966C173.428 24.1794 169.973 27.4079 165.711 27.4079C161.448 27.4079 157.993 24.1794 157.993 20.1966C157.993 16.2107 161.448 12.9822 165.711 12.9822Z" fill="white"/>
</mask>
<g mask="url(#mask8_17_64)">
<path d="M165.707 28.1126C161.023 28.1126 157.233 24.5426 157.233 20.1904C157.233 15.8413 161.023 12.2713 165.707 12.2713C170.388 12.2713 174.182 15.8164 174.182 20.1904C174.182 24.5675 170.362 28.1126 165.707 28.1126ZM165.707 12.7618C161.312 12.7618 157.754 16.0865 157.754 20.1904C157.754 24.2974 161.312 27.6221 165.707 27.6221C170.103 27.6221 173.661 24.2974 173.661 20.1904C173.661 16.0865 170.076 12.7618 165.707 12.7618Z" fill="#2F4858"/>
</g>
</g>
</g>
<mask id="mask9_17_64" style="mask-type:luminance" maskUnits="userSpaceOnUse" x="157" y="12" width="18" height="17">
<path d="M157.232 12.2713H174.332V28.2523H157.232V12.2713Z" fill="white"/>
</mask>
<g mask="url(#mask9_17_64)">
<mask id="mask10_17_64" style="mask-type:luminance" maskUnits="userSpaceOnUse" x="157" y="12" width="18" height="17">
<path d="M157.232 20.1966C157.232 24.5706 161.026 28.1188 165.711 28.1188C170.395 28.1188 174.189 24.5706 174.189 20.1966C174.189 15.8195 170.395 12.2713 165.711 12.2713C161.026 12.2713 157.232 15.8195 157.232 20.1966Z" fill="white"/>
</mask>
<g mask="url(#mask10_17_64)">
<mask id="mask11_17_64" style="mask-type:luminance" maskUnits="userSpaceOnUse" x="157" y="12" width="18" height="17">
<path d="M157.232 20.1904C157.232 24.5643 161.026 28.1126 165.707 28.1126C170.388 28.1126 174.182 24.5643 174.182 20.1904C174.182 15.8195 170.388 12.2713 165.707 12.2713C161.026 12.2713 157.232 15.8195 157.232 20.1904Z" fill="white"/>
</mask>
<g mask="url(#mask11_17_64)">
<path d="M157.232 20.1904C157.232 24.5644 161.026 28.1126 165.707 28.1126C170.388 28.1126 174.182 24.5644 174.182 20.1904C174.182 15.8195 170.388 12.2713 165.707 12.2713C161.026 12.2713 157.232 15.8195 157.232 20.1904Z" stroke="#2F4858" stroke-width="5.96053"/>
</g>
</g>
</g>
<mask id="mask12_17_64" style="mask-type:luminance" maskUnits="userSpaceOnUse" x="146" y="61" width="31" height="28">
<path d="M146.283 61.192H176.9V88.2119H146.283V61.192Z" fill="white"/>
</mask>
<g mask="url(#mask12_17_64)">
<mask id="mask13_17_64" style="mask-type:luminance" maskUnits="userSpaceOnUse" x="145" y="61" width="32" height="28">
<path d="M176.867 62.2413L176.332 88.2895L145.92 87.7463L146.455 61.6981L176.867 62.2413Z" fill="white"/>
</mask>
<g mask="url(#mask13_17_64)">
<mask id="mask14_17_64" style="mask-type:luminance" maskUnits="userSpaceOnUse" x="146" y="61" width="72" height="29">
<path d="M217.856 62.9739L217.321 89.0222L146.362 87.7525L146.897 61.7043L217.856 62.9739Z" fill="white"/>
</mask>
<g mask="url(#mask14_17_64)">
<path d="M168.452 82.9564L168.535 78.8742C168.541 78.5482 168.614 78.2347 168.757 77.9367C168.897 77.6356 169.093 77.3717 169.345 77.1451C169.598 76.9185 169.887 76.7446 170.212 76.6267C170.538 76.5087 170.873 76.4497 171.226 76.4559L177.325 76.5646L177.275 78.9487C177.272 79.1598 177.292 79.3709 177.332 79.5789C177.372 79.7869 177.431 79.9918 177.518 80.1904C177.601 80.386 177.704 80.5754 177.827 80.7523C177.946 80.9324 178.089 81.0969 178.245 81.249C178.405 81.4042 178.574 81.5408 178.76 81.6619C178.95 81.7829 179.146 81.8854 179.355 81.9692C179.561 82.0561 179.777 82.1213 179.999 82.1679C180.222 82.2113 180.445 82.2362 180.674 82.2424L182.082 82.2672C182.149 82.6149 182.249 82.9564 182.381 83.2885C182.514 83.6207 182.674 83.9404 182.863 84.2478C183.053 84.5551 183.272 84.8438 183.514 85.117C183.757 85.3901 184.023 85.6416 184.312 85.8713C184.601 86.101 184.91 86.3059 185.235 86.486C185.564 86.666 185.903 86.8181 186.258 86.9454C186.614 87.0696 186.979 87.1658 187.351 87.2341C187.724 87.3024 188.099 87.3396 188.478 87.3458L200.673 87.5663C201.075 87.5725 201.474 87.5445 201.869 87.4855C202.265 87.4235 202.65 87.3303 203.026 87.2031C203.404 87.0789 203.766 86.9237 204.112 86.7343C204.461 86.548 204.786 86.3338 205.092 86.0917C205.398 85.8496 205.677 85.5826 205.929 85.2939C206.185 85.0052 206.408 84.6948 206.604 84.3688C206.796 84.0398 206.959 83.7014 207.085 83.3444C207.215 82.9905 207.308 82.6273 207.364 82.2579L215.972 82.4131C216.168 82.4162 216.358 82.3852 216.54 82.3169C216.723 82.2486 216.886 82.1523 217.029 82.0251C217.171 81.8978 217.281 81.7488 217.361 81.5812C217.437 81.4135 217.48 81.2366 217.484 81.0503C217.487 80.8672 217.454 80.6902 217.381 80.5195C217.311 80.3487 217.205 80.1966 217.068 80.0632C216.932 79.9297 216.773 79.8272 216.593 79.7527C216.414 79.6813 216.225 79.641 216.029 79.6379L207.474 79.4857L207.63 71.7871L216.185 71.9392C216.381 71.9423 216.573 71.9112 216.756 71.8461C216.939 71.7778 217.102 71.6815 217.245 71.5511C217.384 71.4239 217.494 71.278 217.573 71.1072C217.653 70.9396 217.693 70.7627 217.7 70.5795C217.703 70.3963 217.666 70.2194 217.597 70.0456C217.524 69.8748 217.421 69.7227 217.284 69.5923C217.148 69.4588 216.989 69.3564 216.809 69.2819C216.627 69.2074 216.441 69.1701 216.241 69.167L207.59 69.0118C207.527 68.6548 207.434 68.304 207.308 67.9626C207.185 67.6211 207.025 67.292 206.839 66.9754C206.653 66.6619 206.437 66.3639 206.195 66.0814C205.949 65.802 205.683 65.5412 205.391 65.3053C205.099 65.0663 204.79 64.8552 204.457 64.6689C204.125 64.4826 203.78 64.3243 203.421 64.1939C203.059 64.0636 202.69 63.9642 202.308 63.8928C201.929 63.8245 201.547 63.7842 201.162 63.778L188.963 63.5607C188.584 63.5545 188.205 63.5762 187.83 63.6321C187.458 63.6848 187.089 63.7687 186.73 63.8835C186.368 63.9953 186.023 64.135 185.687 64.3057C185.355 64.4733 185.039 64.6658 184.74 64.8862C184.441 65.1066 184.166 65.3456 183.91 65.6095C183.657 65.8734 183.428 66.1559 183.225 66.4539C183.023 66.755 182.85 67.0685 182.704 67.3976C182.558 67.7235 182.445 68.0619 182.362 68.4065L180.953 68.3816C180.727 68.3785 180.501 68.3972 180.279 68.4344C180.053 68.4717 179.837 68.5276 179.624 68.6052C179.411 68.6828 179.212 68.779 179.019 68.8939C178.83 69.0087 178.651 69.1391 178.488 69.2881C178.325 69.434 178.176 69.5954 178.046 69.7693C177.916 69.9431 177.807 70.1294 177.717 70.3218C177.624 70.5174 177.554 70.7192 177.505 70.9241C177.458 71.1321 177.431 71.3432 177.425 71.5542L177.378 73.7893L171.279 73.6807C170.91 73.6714 170.545 73.6993 170.182 73.7614C169.82 73.8204 169.468 73.9135 169.123 74.0408C168.78 74.165 168.455 74.3233 168.143 74.5064C167.834 74.6927 167.545 74.9069 167.282 75.1459C167.016 75.385 166.777 75.6426 166.568 75.9251C166.355 76.2076 166.176 76.5087 166.03 76.8223C165.883 77.1389 165.771 77.4648 165.691 77.8001C165.611 78.1385 165.568 78.4768 165.561 78.8214L165.478 82.9005C165.482 83.2326 165.412 83.5524 165.276 83.8597C165.139 84.167 164.947 84.4371 164.691 84.6699C164.438 84.9028 164.146 85.0797 163.817 85.2039C163.488 85.3281 163.143 85.387 162.787 85.3808C162.432 85.3715 162.093 85.3032 161.767 85.1666C161.442 85.0331 161.159 84.8438 160.914 84.6016C160.671 84.3595 160.488 84.0832 160.365 83.7697C160.239 83.4593 160.186 83.1364 160.203 82.8043L160.521 67.2424C160.528 66.9009 160.498 66.5594 160.432 66.2211C160.369 65.8827 160.269 65.5536 160.133 65.2339C160 64.911 159.834 64.6068 159.634 64.3181C159.435 64.0294 159.209 63.7593 158.953 63.511C158.698 63.2658 158.419 63.0422 158.116 62.8467C157.814 62.648 157.495 62.4804 157.159 62.3438C156.821 62.2072 156.472 62.1016 156.113 62.0271C155.754 61.9526 155.389 61.9123 155.023 61.9061L148.263 61.785C148.067 61.7819 147.877 61.8129 147.695 61.8781C147.512 61.9464 147.349 62.0427 147.206 62.173C147.063 62.3003 146.954 62.4462 146.874 62.617C146.798 62.7846 146.754 62.9615 146.751 63.1447C146.748 63.3278 146.781 63.5048 146.854 63.6786C146.924 63.8494 147.03 64.0015 147.166 64.1319C147.303 64.2653 147.462 64.3678 147.641 64.4423C147.821 64.5168 148.01 64.554 148.206 64.5571L154.97 64.6782C155.319 64.6875 155.654 64.7558 155.977 64.8862C156.296 65.0166 156.578 65.1997 156.821 65.4357C157.063 65.6716 157.249 65.9417 157.375 66.2459C157.505 66.5501 157.565 66.8667 157.558 67.1927L157.239 82.7546C157.233 83.0992 157.262 83.4406 157.326 83.779C157.392 84.1174 157.492 84.4464 157.625 84.7662C157.761 85.0859 157.927 85.3932 158.123 85.6819C158.322 85.9706 158.551 86.2407 158.804 86.4891C159.06 86.7343 159.339 86.9578 159.641 87.1534C159.943 87.3521 160.262 87.5166 160.601 87.6563C160.937 87.7929 161.286 87.8984 161.648 87.9729C162.007 88.0474 162.369 88.0878 162.737 88.094C163.106 88.1002 163.472 88.0723 163.834 88.0133C164.196 87.9512 164.548 87.8581 164.89 87.7339C165.236 87.6066 165.561 87.4514 165.87 87.2651C166.179 87.0789 166.468 86.8678 166.734 86.6288C167 86.3897 167.236 86.1321 167.448 85.8496C167.658 85.5671 167.837 85.266 167.983 84.9524C168.133 84.6358 168.246 84.3098 168.322 83.9746C168.402 83.6393 168.445 83.2978 168.452 82.9564ZM204.703 70.0487L204.467 81.4446C204.464 81.6681 204.434 81.8916 204.384 82.112C204.331 82.3293 204.258 82.5435 204.162 82.7484C204.065 82.9564 203.949 83.1519 203.813 83.3351C203.673 83.5213 203.517 83.689 203.344 83.8473C203.172 84.0025 202.982 84.1422 202.78 84.2633C202.577 84.3843 202.364 84.4868 202.142 84.5675C201.916 84.6482 201.687 84.7103 201.451 84.7507C201.212 84.791 200.972 84.8065 200.733 84.8034L190.341 84.6172L190.717 66.3639L201.105 66.5501C201.345 66.5532 201.584 66.5812 201.82 66.6277C202.055 66.6774 202.281 66.7457 202.504 66.8357C202.723 66.9257 202.933 67.0344 203.132 67.1648C203.328 67.292 203.511 67.4379 203.677 67.5994C203.846 67.7608 203.992 67.9377 204.122 68.1271C204.255 68.3165 204.361 68.5151 204.451 68.7262C204.537 68.9342 204.604 69.1515 204.647 69.3719C204.687 69.5954 204.707 69.8158 204.703 70.0425V70.0487ZM187.747 66.488L187.378 84.3812C187.016 84.2602 186.684 84.0925 186.378 83.8721C186.072 83.6548 185.81 83.3972 185.591 83.1023C185.371 82.8074 185.209 82.4876 185.096 82.143C184.986 81.7985 184.933 81.4477 184.94 81.0876L185.175 69.6917C185.182 69.3347 185.249 68.9839 185.375 68.6455C185.498 68.304 185.677 67.9905 185.906 67.7018C186.139 67.4162 186.411 67.1679 186.724 66.9599C187.039 66.7519 187.378 66.5967 187.747 66.488ZM180.9 71.1538L182.176 71.1786L182.003 79.4951L180.73 79.4733C180.594 79.4702 180.478 79.4237 180.382 79.3305C180.289 79.2405 180.242 79.1288 180.245 79.0015L180.395 71.607C180.398 71.4797 180.448 71.3711 180.548 71.2842C180.647 71.1973 180.764 71.1538 180.9 71.1538Z" fill="#2F4858"/>
</g>
</g>
</g>
</svg>
