<svg xmlns="http://www.w3.org/2000/svg" xmlns:xlink="http://www.w3.org/1999/xlink" width="40" zoomAndPan="magnify" viewBox="0 0 30 30.000001" height="40" preserveAspectRatio="xMidYMid meet" version="1.0"><defs><g/><clipPath id="7c2a2f90f1"><path d="M 18.746094 1.796875 L 24.554688 1.796875 L 24.554688 7.601562 L 18.746094 7.601562 Z M 18.746094 1.796875 " clip-rule="nonzero"/></clipPath><clipPath id="38224d6de8"><path d="M 18.019531 4.539062 C 18.019531 5.457031 18.386719 6.339844 19.035156 6.992188 C 19.6875 7.640625 20.570312 8.007812 21.488281 8.007812 C 22.410156 8.007812 23.292969 7.640625 23.941406 6.992188 C 24.59375 6.339844 24.957031 5.457031 24.957031 4.539062 C 24.957031 3.617188 24.59375 2.738281 23.941406 2.085938 C 23.292969 1.4375 22.410156 1.070312 21.488281 1.070312 C 20.570312 1.070312 19.6875 1.4375 19.035156 2.085938 C 18.386719 2.738281 18.019531 3.617188 18.019531 4.539062 Z M 18.019531 4.539062 " clip-rule="nonzero"/></clipPath><clipPath id="c94185aaf0"><path d="M 21.488281 1.941406 C 22.179688 1.941406 22.839844 2.214844 23.324219 2.703125 C 23.8125 3.191406 24.085938 3.851562 24.085938 4.539062 C 24.085938 5.226562 23.8125 5.886719 23.324219 6.375 C 22.839844 6.863281 22.179688 7.136719 21.488281 7.136719 C 20.800781 7.136719 20.140625 6.863281 19.652344 6.375 C 19.164062 5.886719 18.890625 5.226562 18.890625 4.539062 C 18.890625 3.851562 19.164062 3.191406 19.652344 2.703125 C 20.140625 2.214844 20.800781 1.941406 21.488281 1.941406 Z M 21.488281 1.941406 " clip-rule="nonzero"/></clipPath><clipPath id="19c8ffe088"><path d="M 18.019531 1.070312 L 25 1.070312 L 25 8 L 18.019531 8 Z M 18.019531 1.070312 " clip-rule="nonzero"/></clipPath><clipPath id="87b69a80cf"><path d="M 18.019531 4.539062 C 18.019531 5.457031 18.386719 6.339844 19.035156 6.992188 C 19.6875 7.640625 20.570312 8.007812 21.488281 8.007812 C 22.410156 8.007812 23.292969 7.640625 23.941406 6.992188 C 24.59375 6.339844 24.957031 5.457031 24.957031 4.539062 C 24.957031 3.617188 24.59375 2.738281 23.941406 2.085938 C 23.292969 1.4375 22.410156 1.070312 21.488281 1.070312 C 20.570312 1.070312 19.6875 1.4375 19.035156 2.085938 C 18.386719 2.738281 18.019531 3.617188 18.019531 4.539062 Z M 18.019531 4.539062 " clip-rule="nonzero"/></clipPath><clipPath id="2c11e0fdcc"><path d="M 18.019531 4.535156 C 18.019531 5.453125 18.386719 6.335938 19.035156 6.984375 C 19.6875 7.636719 20.566406 8 21.484375 8 C 22.40625 8 23.285156 7.636719 23.9375 6.984375 C 24.585938 6.335938 24.949219 5.453125 24.949219 4.535156 C 24.949219 3.617188 24.585938 2.734375 23.9375 2.085938 C 23.285156 1.4375 22.40625 1.070312 21.484375 1.070312 C 20.566406 1.070312 19.6875 1.4375 19.035156 2.085938 C 18.386719 2.734375 18.019531 3.617188 18.019531 4.535156 Z M 18.019531 4.535156 " clip-rule="nonzero"/></clipPath><clipPath id="32202426d1"><path d="M 5.699219 1.796875 L 11.503906 1.796875 L 11.503906 7.601562 L 5.699219 7.601562 Z M 5.699219 1.796875 " clip-rule="nonzero"/></clipPath><clipPath id="568b246d8d"><path d="M 4.972656 4.539062 C 4.972656 5.457031 5.335938 6.339844 5.988281 6.992188 C 6.636719 7.640625 7.519531 8.007812 8.441406 8.007812 C 9.359375 8.007812 10.242188 7.640625 10.890625 6.992188 C 11.542969 6.339844 11.910156 5.457031 11.910156 4.539062 C 11.910156 3.617188 11.542969 2.738281 10.890625 2.085938 C 10.242188 1.4375 9.359375 1.070312 8.441406 1.070312 C 7.519531 1.070312 6.636719 1.4375 5.988281 2.085938 C 5.335938 2.738281 4.972656 3.617188 4.972656 4.539062 Z M 4.972656 4.539062 " clip-rule="nonzero"/></clipPath><clipPath id="53822d2edd"><path d="M 8.441406 1.941406 C 9.128906 1.941406 9.789062 2.214844 10.277344 2.703125 C 10.761719 3.191406 11.039062 3.851562 11.039062 4.539062 C 11.039062 5.226562 10.761719 5.886719 10.277344 6.375 C 9.789062 6.863281 9.128906 7.136719 8.441406 7.136719 C 7.75 7.136719 7.089844 6.863281 6.605469 6.375 C 6.117188 5.886719 5.84375 5.226562 5.84375 4.539062 C 5.84375 3.851562 6.117188 3.191406 6.605469 2.703125 C 7.089844 2.214844 7.75 1.941406 8.441406 1.941406 Z M 8.441406 1.941406 " clip-rule="nonzero"/></clipPath><clipPath id="ffcd71b527"><path d="M 4.972656 1.070312 L 12 1.070312 L 12 8 L 4.972656 8 Z M 4.972656 1.070312 " clip-rule="nonzero"/></clipPath><clipPath id="c51844cf71"><path d="M 4.972656 4.539062 C 4.972656 5.457031 5.335938 6.339844 5.988281 6.992188 C 6.636719 7.640625 7.519531 8.007812 8.441406 8.007812 C 9.359375 8.007812 10.242188 7.640625 10.890625 6.992188 C 11.542969 6.339844 11.910156 5.457031 11.910156 4.539062 C 11.910156 3.617188 11.542969 2.738281 10.890625 2.085938 C 10.242188 1.4375 9.359375 1.070312 8.441406 1.070312 C 7.519531 1.070312 6.636719 1.4375 5.988281 2.085938 C 5.335938 2.738281 4.972656 3.617188 4.972656 4.539062 Z M 4.972656 4.539062 " clip-rule="nonzero"/></clipPath><clipPath id="c5aaa3cb06"><path d="M 4.972656 4.535156 C 4.972656 5.453125 5.335938 6.335938 5.988281 6.984375 C 6.636719 7.636719 7.519531 8 8.4375 8 C 9.355469 8 10.238281 7.636719 10.886719 6.984375 C 11.535156 6.335938 11.902344 5.453125 11.902344 4.535156 C 11.902344 3.617188 11.535156 2.734375 10.886719 2.085938 C 10.238281 1.4375 9.355469 1.070312 8.4375 1.070312 C 7.519531 1.070312 6.636719 1.4375 5.988281 2.085938 C 5.335938 2.734375 4.972656 3.617188 4.972656 4.535156 Z M 4.972656 4.535156 " clip-rule="nonzero"/></clipPath><clipPath id="6a666ba352"><path d="M 14 21 L 23 21 L 23 29 L 14 29 Z M 14 21 " clip-rule="nonzero"/></clipPath><clipPath id="689f4c6ff9"><path d="M 22.019531 21.75 L 21.878906 29.007812 L 13.898438 28.855469 L 14.035156 21.597656 Z M 22.019531 21.75 " clip-rule="nonzero"/></clipPath><clipPath id="87a72dbc81"><path d="M 32.703125 21.953125 L 32.5625 29.210938 L 13.695312 28.851562 L 13.835938 21.59375 Z M 32.703125 21.953125 " clip-rule="nonzero"/></clipPath></defs><g fill="#4fd615" fill-opacity="1"><g transform="translate(4.972238, 23.062245)"><g><path d="M 16.546875 -19.671875 C 16.804688 -19.671875 17.007812 -19.585938 17.15625 -19.421875 C 17.3125 -19.265625 17.390625 -19.066406 17.390625 -18.828125 L 17.390625 -7.1875 C 17.390625 -5.800781 17.0625 -4.546875 16.40625 -3.421875 C 15.75 -2.296875 14.867188 -1.398438 13.765625 -0.734375 C 12.660156 -0.078125 11.414062 0.25 10.03125 0.25 C 8.644531 0.25 7.394531 -0.078125 6.28125 -0.734375 C 5.164062 -1.398438 4.28125 -2.296875 3.625 -3.421875 C 2.96875 -4.546875 2.640625 -5.800781 2.640625 -7.1875 L 2.640625 -18.828125 C 2.640625 -19.066406 2.71875 -19.265625 2.875 -19.421875 C 3.039062 -19.585938 3.265625 -19.671875 3.546875 -19.671875 C 3.765625 -19.671875 3.957031 -19.585938 4.125 -19.421875 C 4.289062 -19.265625 4.375 -19.066406 4.375 -18.828125 L 4.375 -7.1875 C 4.375 -6.101562 4.628906 -5.128906 5.140625 -4.265625 C 5.660156 -3.410156 6.351562 -2.722656 7.21875 -2.203125 C 8.082031 -1.691406 9.019531 -1.4375 10.03125 -1.4375 C 11.082031 -1.4375 12.035156 -1.691406 12.890625 -2.203125 C 13.753906 -2.722656 14.441406 -3.410156 14.953125 -4.265625 C 15.472656 -5.128906 15.734375 -6.101562 15.734375 -7.1875 L 15.734375 -18.828125 C 15.734375 -19.066406 15.804688 -19.265625 15.953125 -19.421875 C 16.109375 -19.585938 16.304688 -19.671875 16.546875 -19.671875 Z M 16.546875 -19.671875 "/></g></g></g><g clip-path="url(#7c2a2f90f1)"><g clip-path="url(#38224d6de8)"><g clip-path="url(#c94185aaf0)"><path fill="#7ed957" d="M 21.484375 8 C 19.570312 8 18.019531 6.4375 18.019531 4.535156 C 18.019531 2.632812 19.570312 1.070312 21.484375 1.070312 C 23.398438 1.070312 24.949219 2.621094 24.949219 4.535156 C 24.949219 6.449219 23.390625 8 21.484375 8 Z M 21.484375 1.285156 C 19.6875 1.285156 18.234375 2.738281 18.234375 4.535156 C 18.234375 6.332031 19.6875 7.785156 21.484375 7.785156 C 23.28125 7.785156 24.738281 6.332031 24.738281 4.535156 C 24.738281 2.738281 23.273438 1.285156 21.484375 1.285156 Z M 21.484375 1.285156 " fill-opacity="1" fill-rule="nonzero"/></g></g></g><g clip-path="url(#19c8ffe088)"><g clip-path="url(#87b69a80cf)"><g clip-path="url(#2c11e0fdcc)"><path stroke-linecap="butt" transform="matrix(0.725806, 0, 0, 0.725806, 18.021257, 1.070801)" fill="none" stroke-linejoin="miter" d="M -0.00237816 4.773112 C -0.00237816 6.037869 0.503525 7.254189 1.396927 8.147591 C 2.295712 9.046376 3.50665 9.546897 4.771407 9.546897 C 6.041546 9.546897 7.252483 9.046376 8.151268 8.147591 C 9.044671 7.254189 9.545191 6.037869 9.545191 4.773112 C 9.545191 3.508355 9.044671 2.292036 8.151268 1.398633 C 7.252483 0.50523 6.041546 -0.000672597 4.771407 -0.000672597 C 3.50665 -0.000672597 2.295712 0.50523 1.396927 1.398633 C 0.503525 2.292036 -0.00237816 3.508355 -0.00237816 4.773112 Z M -0.00237816 4.773112 " stroke="#4fd615" stroke-width="2" stroke-opacity="1" stroke-miterlimit="4"/></g></g></g><g clip-path="url(#32202426d1)"><g clip-path="url(#568b246d8d)"><g clip-path="url(#53822d2edd)"><path fill="#2f4858" d="M 8.4375 8 C 6.523438 8 4.972656 6.4375 4.972656 4.535156 C 4.972656 2.632812 6.523438 1.070312 8.4375 1.070312 C 10.351562 1.070312 11.902344 2.621094 11.902344 4.535156 C 11.902344 6.449219 10.339844 8 8.4375 8 Z M 8.4375 1.285156 C 6.640625 1.285156 5.1875 2.738281 5.1875 4.535156 C 5.1875 6.332031 6.640625 7.785156 8.4375 7.785156 C 10.234375 7.785156 11.6875 6.332031 11.6875 4.535156 C 11.6875 2.738281 10.222656 1.285156 8.4375 1.285156 Z M 8.4375 1.285156 " fill-opacity="1" fill-rule="nonzero"/></g></g></g><g clip-path="url(#ffcd71b527)"><g clip-path="url(#c51844cf71)"><g clip-path="url(#c5aaa3cb06)"><path stroke-linecap="butt" transform="matrix(0.725806, 0, 0, 0.725806, 4.972238, 1.070801)" fill="none" stroke-linejoin="miter" d="M 0.000576529 4.773112 C 0.000576529 6.037869 0.501097 7.254189 1.399882 8.147591 C 2.293285 9.046376 3.509604 9.546897 4.774361 9.546897 C 6.039118 9.546897 7.255438 9.046376 8.14884 8.147591 C 9.042243 7.254189 9.548146 6.037869 9.548146 4.773112 C 9.548146 3.508355 9.042243 2.292036 8.14884 1.398633 C 7.255438 0.50523 6.039118 -0.000672597 4.774361 -0.000672597 C 3.509604 -0.000672597 2.293285 0.50523 1.399882 1.398633 C 0.501097 2.292036 0.000576529 3.508355 0.000576529 4.773112 Z M 0.000576529 4.773112 " stroke="#4fd615" stroke-width="2" stroke-opacity="1" stroke-miterlimit="4"/></g></g></g><g clip-path="url(#6a666ba352)"><g clip-path="url(#689f4c6ff9)"><g clip-path="url(#87a72dbc81)"><path fill="#4fd615" d="M 19.828125 27.527344 L 19.847656 26.386719 C 19.851562 26.199219 19.921875 26.039062 20.0625 25.90625 C 20.199219 25.773438 20.359375 25.710938 20.550781 25.714844 L 22.140625 25.746094 L 22.128906 26.410156 C 22.125 26.65625 22.207031 26.871094 22.378906 27.050781 C 22.554688 27.230469 22.765625 27.324219 23.011719 27.328125 L 23.378906 27.335938 C 23.453125 27.738281 23.648438 28.074219 23.960938 28.339844 C 24.273438 28.605469 24.636719 28.742188 25.046875 28.75 L 28.226562 28.8125 C 28.4375 28.816406 28.640625 28.78125 28.839844 28.710938 C 29.035156 28.640625 29.214844 28.539062 29.375 28.402344 C 29.535156 28.265625 29.667969 28.105469 29.769531 27.921875 C 29.871094 27.738281 29.9375 27.539062 29.96875 27.332031 L 32.210938 27.375 C 32.320312 27.378906 32.410156 27.339844 32.488281 27.265625 C 32.566406 27.191406 32.605469 27.101562 32.605469 26.996094 C 32.609375 26.890625 32.570312 26.796875 32.496094 26.71875 C 32.425781 26.644531 32.332031 26.601562 32.226562 26.601562 L 29.996094 26.558594 L 30.039062 24.410156 L 32.269531 24.453125 C 32.375 24.457031 32.464844 24.421875 32.542969 24.347656 C 32.621094 24.273438 32.660156 24.183594 32.660156 24.074219 C 32.664062 23.96875 32.628906 23.875 32.554688 23.800781 C 32.480469 23.722656 32.390625 23.683594 32.28125 23.679688 L 30.027344 23.636719 C 29.996094 23.4375 29.929688 23.246094 29.832031 23.070312 C 29.734375 22.890625 29.609375 22.738281 29.453125 22.601562 C 29.300781 22.46875 29.128906 22.367188 28.941406 22.292969 C 28.75 22.21875 28.554688 22.183594 28.351562 22.179688 L 25.171875 22.117188 C 24.761719 22.109375 24.394531 22.234375 24.074219 22.488281 C 23.75 22.742188 23.542969 23.066406 23.453125 23.46875 L 23.085938 23.460938 C 22.835938 23.457031 22.621094 23.542969 22.441406 23.714844 C 22.265625 23.886719 22.171875 24.097656 22.167969 24.347656 L 22.15625 24.96875 L 20.566406 24.9375 C 20.371094 24.9375 20.183594 24.96875 20.003906 25.039062 C 19.824219 25.109375 19.664062 25.214844 19.523438 25.347656 C 19.382812 25.484375 19.273438 25.636719 19.195312 25.816406 C 19.117188 25.992188 19.078125 26.179688 19.074219 26.375 L 19.054688 27.511719 C 19.054688 27.703125 18.984375 27.867188 18.847656 28.003906 C 18.710938 28.140625 18.546875 28.207031 18.351562 28.203125 C 18.160156 28.199219 17.996094 28.125 17.863281 27.984375 C 17.730469 27.84375 17.667969 27.679688 17.679688 27.484375 L 17.761719 23.144531 C 17.765625 22.949219 17.730469 22.765625 17.660156 22.582031 C 17.589844 22.402344 17.488281 22.242188 17.351562 22.105469 C 17.21875 21.964844 17.0625 21.855469 16.882812 21.777344 C 16.707031 21.699219 16.523438 21.660156 16.328125 21.65625 L 14.566406 21.621094 C 14.460938 21.621094 14.367188 21.65625 14.289062 21.730469 C 14.214844 21.804688 14.175781 21.894531 14.171875 22 C 14.171875 22.109375 14.207031 22.199219 14.28125 22.277344 C 14.355469 22.355469 14.445312 22.394531 14.550781 22.394531 L 16.3125 22.429688 C 16.503906 22.433594 16.664062 22.503906 16.796875 22.640625 C 16.929688 22.777344 16.992188 22.941406 16.988281 23.128906 L 16.90625 27.46875 C 16.902344 27.664062 16.9375 27.851562 17.007812 28.03125 C 17.078125 28.210938 17.179688 28.371094 17.3125 28.511719 C 17.449219 28.652344 17.605469 28.761719 17.78125 28.835938 C 17.960938 28.914062 18.144531 28.957031 18.339844 28.960938 C 18.53125 28.964844 18.71875 28.929688 18.898438 28.859375 C 19.082031 28.789062 19.242188 28.6875 19.378906 28.550781 C 19.519531 28.417969 19.628906 28.261719 19.707031 28.082031 C 19.785156 27.90625 19.824219 27.71875 19.828125 27.527344 Z M 29.273438 23.925781 L 29.214844 27.105469 C 29.210938 27.367188 29.113281 27.59375 28.921875 27.773438 C 28.730469 27.957031 28.503906 28.046875 28.242188 28.042969 L 25.53125 27.988281 L 25.628906 22.898438 L 28.335938 22.949219 C 28.464844 22.953125 28.585938 22.980469 28.703125 23.03125 C 28.816406 23.082031 28.921875 23.152344 29.007812 23.242188 C 29.097656 23.335938 29.164062 23.441406 29.210938 23.558594 C 29.253906 23.675781 29.277344 23.796875 29.273438 23.925781 Z M 24.855469 22.933594 L 24.761719 27.925781 C 24.566406 27.855469 24.410156 27.738281 24.292969 27.566406 C 24.175781 27.398438 24.121094 27.210938 24.125 27.003906 L 24.1875 23.828125 C 24.191406 23.621094 24.253906 23.4375 24.375 23.273438 C 24.5 23.109375 24.660156 22.996094 24.855469 22.933594 Z M 23.070312 24.234375 L 23.402344 24.242188 L 23.359375 26.5625 L 23.027344 26.554688 C 22.941406 26.554688 22.898438 26.511719 22.902344 26.425781 L 22.941406 24.363281 C 22.941406 24.277344 22.984375 24.234375 23.070312 24.234375 Z M 23.070312 24.234375 " fill-opacity="1" fill-rule="nonzero"/></g></g></g></svg>